<?xml version="1.0" encoding="utf-8"?>
<!-- Generator: Adobe Illustrator 21.0.2, SVG Export Plug-In . SVG Version: 6.00 Build 0)  -->
<!DOCTYPE svg PUBLIC "-//W3C//DTD SVG 1.1//EN" "http://www.w3.org/Graphics/SVG/1.1/DTD/svg11.dtd">
<svg version="1.1" id="Layer_1" xmlns="http://www.w3.org/2000/svg" xmlns:xlink="http://www.w3.org/1999/xlink" x="0px" y="0px"
	 viewBox="0 0 215.4 283.5" style="enable-background:new 0 0 215.4 283.5;" xml:space="preserve">
<style type="text/css">
	.st0{fill:#FFCF01;}
	.st1{fill:#D3AB07;}
</style>
<g>
	<path class="st0" d="M2,140.6C2,125,3.3,115.1,35.6,91C62.4,71,148.2,2.7,148.2,2.7v114h65.3v164.1H22.3
		c-11.2,0-20.4-9.2-20.4-20.4L2,140.6z"/>
	<g>
		<g>
			<polygon class="st1" points="148.2,116.7 148.2,182.8 28.3,264.5 179.9,215.1 179.9,116.7 			"/>
			<path d="M93.4,113.3c7-8.4,17.3-11.3,22.9-6.6c5.6,4.7,4.5,15.3-2.5,23.7c-7,8.4-17.3,11.3-22.9,6.6
				C85.3,132.2,86.4,121.6,93.4,113.3"/>
		</g>
	</g>
</g>
</svg>
