<svg width="18" height="16" viewBox="0 0 18 16" fill="none" xmlns="http://www.w3.org/2000/svg">
<path d="M8.45932 4.81509C8.53582 5.04774 8.7544 5.20432 9 5.20432C9.2456 5.20432 9.46417 5.04775 9.54068 4.81511C9.61415 4.59179 9.83059 4.00748 10.2446 3.42881L10.1632 3.37063L10.2446 3.42881C10.7062 2.78348 11.5108 2.02853 12.75 2.02853C13.6475 2.02853 14.4651 2.3933 15.0546 3.0557C15.6386 3.71202 15.9625 4.60273 15.9625 5.56574C15.9625 6.72384 15.4418 7.7505 14.5061 8.83559C13.5689 9.92253 12.2259 11.0563 10.5978 12.4305C10.0841 12.864 9.55571 13.31 9 13.7878C8.44432 13.31 7.91586 12.864 7.40212 12.4304C5.77401 11.0563 4.43107 9.92252 3.49385 8.83558C2.55824 7.7505 2.0375 6.72384 2.0375 5.56574C2.0375 4.60273 2.3614 3.71202 2.94539 3.05569C3.53487 2.3933 4.35253 2.02853 5.25 2.02853C6.4892 2.02853 7.29376 2.78348 7.75542 3.42884L7.75542 3.42885C8.1694 4.00746 8.38583 4.59176 8.45932 4.81509ZM8.45932 4.81509L8.55431 4.78385L8.45932 4.81511C8.45932 4.8151 8.45932 4.81509 8.45932 4.81509ZM9.31695 2.77566L9.39828 2.83385L9.31695 2.77567C9.19816 2.94173 9.09281 3.10799 9 3.26863C8.9072 3.10799 8.80186 2.94173 8.68305 2.77566C8.0748 1.92543 6.98103 0.9 5.25 0.9C4.02308 0.9 2.90101 1.4004 2.09264 2.30883L2.09264 2.30883C1.3224 3.1745 0.9 4.33172 0.9 5.56574C0.9 6.91453 1.433 8.16307 2.55955 9.49004C3.56238 10.6713 5.00254 11.8868 6.65954 13.2853L6.66519 13.2901C7.2844 13.8127 7.9242 14.3527 8.60529 14.9429L8.6257 14.9606L8.62574 14.9606C8.733 15.0536 8.86669 15.1 9 15.1C9.13333 15.1 9.26701 15.0536 9.37425 14.9606L9.3743 14.9606L9.39471 14.9429C10.0739 14.3543 10.7121 13.8157 11.3298 13.2943L11.3349 13.29L11.3404 13.2854C12.9974 11.8869 14.4376 10.6714 15.4405 9.49004C16.567 8.16304 17.1 6.91453 17.1 5.56574C17.1 4.33172 16.6776 3.1745 15.9073 2.3088L15.8326 2.37528L15.9073 2.3088C15.099 1.40037 13.9769 0.9 12.75 0.9C11.019 0.9 9.9252 1.92543 9.31695 2.77566Z" fill="#1A1A1A" stroke="#1A1A1A" stroke-width="0.2"/>
</svg>
