<svg width="20" height="20" viewBox="0 0 20 20" fill="none" xmlns="http://www.w3.org/2000/svg">
<path d="M9.99999 8.51201C10.7005 8.51201 11.3852 8.31126 11.9677 7.93519C12.5502 7.55911 13.0041 7.02457 13.2722 6.39917C13.5402 5.77376 13.6105 5.08558 13.4738 4.42165C13.3372 3.75771 12.9998 3.14785 12.5045 2.66918C12.0092 2.1905 11.3781 1.86451 10.6911 1.73244C10.0041 1.60037 9.29191 1.66815 8.6447 1.92719C7.99758 2.18624 7.44443 2.62494 7.05525 3.18779C6.66608 3.75064 6.45836 4.41237 6.45836 5.08931C6.45943 5.99673 6.83291 6.86667 7.49686 7.50831C8.16085 8.14996 9.06102 8.5109 9.99999 8.51201ZM9.99999 2.55961C10.5178 2.55959 11.0239 2.70795 11.4544 2.98592C11.885 3.26389 12.2204 3.65899 12.4186 4.12125C12.6168 4.58352 12.6686 5.09218 12.5676 5.58293C12.4666 6.07366 12.2173 6.52444 11.8511 6.87824C11.4851 7.23204 11.0186 7.47299 10.5107 7.57059C10.0029 7.66821 9.4766 7.6181 8.99829 7.42661C8.51988 7.23513 8.11105 6.91087 7.82341 6.49483C7.53577 6.0788 7.38225 5.58968 7.38227 5.08931C7.38307 4.41863 7.65913 3.77565 8.14988 3.3014C8.64064 2.82716 9.30595 2.56039 9.99999 2.55961ZM17.1206 13.5043C15.2307 11.6818 12.6698 10.6583 9.99999 10.6583C7.33013 10.6583 4.76931 11.6818 2.8794 13.5043L2.60869 13.7659V18.3333H17.3913V13.7659L17.1206 13.5043ZM16.4674 17.4405H3.5326V14.1395C3.54507 14.1285 3.648 14.0303 3.66056 14.0195C5.36411 12.4358 7.63613 11.5511 9.99999 11.5511C12.3638 11.5511 14.6359 12.4358 16.3394 14.0195C16.3521 14.0303 16.4549 14.1285 16.4674 14.1395V17.4405Z" fill="#1A1A1A"/>
<path fill-rule="evenodd" clip-rule="evenodd" d="M9.99976 8.71201C9.00999 8.71084 8.0598 8.33043 7.35788 7.65213C6.65577 6.97361 6.2595 6.05217 6.25836 5.08955C6.25836 4.3715 6.47873 3.66994 6.89075 3.07405L7.05525 3.18779C6.66608 3.75064 6.45836 4.41238 6.45836 5.08932C6.45943 5.99673 6.83291 6.86667 7.49687 7.50831C8.16085 8.14996 9.06102 8.5109 10 8.51201C10.7005 8.51201 11.3852 8.31126 11.9677 7.93519C12.5502 7.55911 13.0041 7.02457 13.2722 6.39917C13.5402 5.77377 13.6105 5.08558 13.4738 4.42165C13.3372 3.75771 12.9998 3.14785 12.5045 2.66918C12.0092 2.1905 11.3781 1.86452 10.6911 1.73245C10.0041 1.60038 9.29191 1.66815 8.64471 1.92719C7.99758 2.18625 7.44443 2.62494 7.05525 3.18779L6.89075 3.07405C7.30271 2.47825 7.88751 2.01488 8.57038 1.74152C9.25327 1.46819 10.0043 1.39677 10.7288 1.53604C11.4534 1.67532 12.1198 2.01926 12.6435 2.52536C13.1673 3.03154 13.5248 3.67728 13.6697 4.38134C13.8146 5.08545 13.7401 5.81518 13.456 6.47795C13.1719 7.14065 12.6914 7.70598 12.0762 8.10321C11.461 8.50037 10.7383 8.71201 9.99976 8.71201ZM8.99829 7.42662C9.4766 7.6181 10.003 7.66821 10.5107 7.5706C11.0186 7.47299 11.4851 7.23205 11.8511 6.87825C12.2173 6.52445 12.4666 6.07366 12.5676 5.58293C12.6686 5.09218 12.6168 4.58352 12.4186 4.12125C12.2204 3.65899 11.885 3.2639 11.4544 2.98593C11.0239 2.70796 10.5178 2.55959 10 2.55961C9.30595 2.56039 8.64064 2.82716 8.14988 3.3014C7.65913 3.77565 7.38308 4.41864 7.38227 5.08932C7.38225 5.58968 7.53577 6.0788 7.82341 6.49483C8.11105 6.91087 8.51989 7.23514 8.99829 7.42662ZM7.58227 5.08932C7.58226 5.54857 7.72312 5.9981 7.98792 6.38109C8.25278 6.76418 8.62996 7.06377 9.07261 7.24094C9.51522 7.41813 10.0027 7.4646 10.473 7.37419C10.9434 7.28379 11.3745 7.06079 11.7122 6.73444C12.0498 6.40815 12.2789 5.99323 12.3718 5.54258C12.4645 5.09201 12.4169 4.62491 12.2348 4.20006C12.0526 3.77508 11.7437 3.41076 11.3459 3.15395C10.9481 2.8971 10.4798 2.75961 10.0001 2.75961C9.35692 2.76036 8.74167 3.00766 8.28886 3.44522C7.83634 3.88253 7.58307 4.47394 7.58227 5.08932ZM17.2596 13.3605L17.5913 13.681V18.5333H2.40869V13.681L2.74042 13.3605C4.6683 11.5014 7.27933 10.4583 10 10.4583C12.7206 10.4583 15.3317 11.5014 17.2596 13.3605ZM3.66057 14.0195C3.65365 14.0255 3.61937 14.0579 3.58786 14.0877C3.56211 14.112 3.53821 14.1346 3.5326 14.1395V17.4405H16.4674V14.1395C16.4619 14.1347 16.4389 14.1129 16.4137 14.0892C16.3818 14.059 16.3465 14.0256 16.3394 14.0195C14.6359 12.4358 12.3638 11.5511 10 11.5511C7.63614 11.5511 5.36411 12.4358 3.66057 14.0195ZM16.2674 14.226L16.2661 14.2248L16.2262 14.1872C16.2173 14.1788 16.2123 14.1742 16.2104 14.1724C16.2094 14.1715 16.2091 14.1713 16.2096 14.1717L16.2031 14.1662C14.5373 12.6174 12.3142 11.7511 10 11.7511C7.68575 11.7511 5.46263 12.6173 3.79674 14.166L3.79105 14.1713C3.79082 14.1715 3.79015 14.172 3.78918 14.1729C3.78673 14.1751 3.78182 14.1797 3.77385 14.1872L3.7339 14.2248L3.7326 14.226V17.2405H16.2674V14.226ZM2.8794 13.5043C4.76931 11.6818 7.33014 10.6583 10 10.6583C12.6698 10.6583 15.2307 11.6818 17.1206 13.5043L17.3913 13.7659V18.3333H2.60869V13.7659L2.8794 13.5043Z" fill="#1A1A1A"/>
</svg>
