<svg width="17" height="19" viewBox="0 0 17 19" fill="none" xmlns="http://www.w3.org/2000/svg">
<path d="M8.49995 2.47827C6.60097 2.47827 5.04234 3.76729 5.04234 5.33779V5.9097H1.62794L1.58472 6.44586L0.893196 16.7401L0.849976 17.3478H16.15L16.1067 16.7401L15.4152 6.44586L15.3719 5.9097H11.9576V5.33779C11.9576 3.76729 10.3989 2.47827 8.49995 2.47827ZM8.49995 3.62208C9.6453 3.62208 10.5745 4.39058 10.5745 5.33779V5.9097H6.42538V5.33779C6.42538 4.39058 7.35461 3.62208 8.49995 3.62208ZM2.92455 7.05351H5.04234V8.76922H6.42538V7.05351H10.5745V8.76922H11.9576V7.05351H14.0754L14.6804 16.2039H2.31946L2.92455 7.05351Z" fill="#1A1A1A"/>
</svg>
