<svg width="22" height="16" viewBox="0 0 22 16" fill="none" xmlns="http://www.w3.org/2000/svg">
<path d="M10.7643 12.5427C11.0064 12.5427 11.243 12.4722 11.4443 12.3402C11.6455 12.2083 11.8024 12.0207 11.895 11.8012C11.9876 11.5818 12.0119 11.3403 11.9646 11.1073C11.9174 10.8744 11.8009 10.6604 11.6297 10.4924C11.4586 10.3244 11.2405 10.21 11.0031 10.1637C10.7657 10.1174 10.5196 10.1411 10.296 10.232C10.0724 10.3229 9.88125 10.4769 9.74678 10.6744C9.6123 10.8719 9.54053 11.1041 9.54053 11.3416C9.541 11.66 9.67009 11.9652 9.8995 12.1904C10.1289 12.4155 10.4399 12.5422 10.7643 12.5427Z" fill="black"/>
<path d="M5.22562 0.710938V1.41638H17.8502L18.977 6.94175H6.54648C5.25709 6.93601 4.00481 7.36504 2.99919 8.15704C1.99358 8.94904 1.29566 10.056 1.02223 11.2926L0.0410156 15.624H21.4785L18.4396 0.710938H5.22562ZM20.6015 14.9185H0.939561L1.72489 11.4442C1.9637 10.365 2.5729 9.39904 3.45058 8.70786C4.32825 8.01668 5.42117 7.64225 6.54648 7.6472H19.1261L20.6015 14.9185Z" fill="black"/>
</svg>
