<svg width="26" height="20" viewBox="0 0 26 20" fill="none" xmlns="http://www.w3.org/2000/svg">
<path d="M17.1577 8.08819L23.3689 4.31457L23.1964 4.01155L16.9852 7.77988L13.2067 0.74707L9.42129 7.77988L3.21007 4.01155L3.03754 4.31457L9.25738 8.08819L5.75322 14.6066L0.62207 17.7107L0.794604 18.012L5.42541 15.2073L3.04789 19.624H23.3655L20.981 15.2073L25.6153 18.012L25.7878 17.709L20.6619 14.5978L17.1577 8.08819ZM19.4921 13.8878L13.5448 10.2798L16.5642 8.44758L19.4921 13.8878ZM13.2067 2.21107L16.3985 8.14632L13.2067 10.0842L10.0165 8.14632L13.2067 2.21107ZM9.85089 8.44758L12.872 10.2798L6.923 13.8878L9.85089 8.44758ZM22.1991 18.9193H4.21422L6.59518 14.4974L13.2067 10.4859L19.8199 14.4974L22.1991 18.9193Z" fill="black"/>
</svg>
