<svg width="20" height="20" viewBox="0 0 20 20" fill="none" xmlns="http://www.w3.org/2000/svg">
<path d="M9.98374 19.6242C11.8272 19.6242 13.6292 19.0776 15.162 18.0534C16.6948 17.0292 17.8894 15.5736 18.5949 13.8704C19.3004 12.1673 19.4849 10.2932 19.1253 8.4852C18.7657 6.67717 17.8779 5.01639 16.5744 3.71287C15.2709 2.40935 13.6101 1.52165 11.8021 1.16201C9.99408 0.802369 8.12 0.986949 6.41688 1.69241C4.71375 2.39786 3.25807 3.59252 2.2339 5.12529C1.20973 6.65806 0.663086 8.46011 0.663086 10.3036C0.66597 12.7747 1.64889 15.1437 3.39623 16.8911C5.14356 18.6384 7.51263 19.6213 9.98374 19.6242ZM9.98374 1.70953C11.6835 1.70953 13.345 2.21356 14.7583 3.15789C16.1716 4.10221 17.2731 5.44442 17.9236 7.01477C18.5741 8.58512 18.7442 10.3131 18.4126 11.9802C18.081 13.6473 17.2625 15.1786 16.0606 16.3805C14.8587 17.5824 13.3274 18.4009 11.6603 18.7325C9.99327 19.0641 8.2653 18.8939 6.69494 18.2434C5.12459 17.593 3.78238 16.4914 2.83806 15.0782C1.89373 13.6649 1.3897 12.0033 1.3897 10.3036C1.39258 8.02517 2.29895 5.84092 3.91002 4.22985C5.52109 2.61878 7.70534 1.71241 9.98374 1.70953Z" fill="black"/>
</svg>
