<svg width="22" height="20" viewBox="0 0 22 20" fill="none" xmlns="http://www.w3.org/2000/svg">
<path d="M0.557129 17.2792L0.758838 17.5853L2.03088 16.7254V19.6242H20.5136V16.7254L21.7856 17.5853L22.0001 17.2792L20.5191 16.2854V4.32173L22.0001 3.32797L21.7984 3.02177L20.5263 3.88169V0.98291H2.03815V3.88169L0.766107 3.02177L0.557129 3.32797L2.03815 4.32173V16.2854L0.557129 17.2792ZM19.7867 18.8908H2.76503V16.2377L5.34181 14.5069C6.00967 15.4696 6.89776 16.2556 7.93076 16.7983C8.96377 17.3409 10.1112 17.6243 11.2759 17.6243C12.4405 17.6243 13.588 17.3409 14.621 16.7983C15.654 16.2556 16.5421 15.4696 17.2099 14.5069L19.7867 16.2377V18.8908ZM11.2786 10.0826L5.94694 6.50544C6.54836 5.64327 7.34644 4.93966 8.27389 4.45396C9.20134 3.96827 10.2309 3.71473 11.2759 3.71473C12.3208 3.71473 13.3504 3.96827 14.2779 4.45396C15.2053 4.93966 16.0034 5.64327 16.6048 6.50544L11.2786 10.0826ZM16.8065 6.80981C17.4584 7.85641 17.8043 9.06743 17.8043 10.3036C17.8043 11.5397 17.4584 12.7507 16.8065 13.7973L11.6039 10.3026L16.8065 6.80981ZM10.9479 10.2935L5.74523 13.7973C5.09332 12.7507 4.74747 11.5397 4.74747 10.3036C4.74747 9.06743 5.09332 7.85641 5.74523 6.80981L10.9479 10.2935ZM11.2786 10.5172L16.6048 14.1017C16.0031 14.9635 15.205 15.6668 14.2776 16.1522C13.3501 16.6376 12.3207 16.891 11.2759 16.891C10.2311 16.891 9.20161 16.6376 8.2742 16.1522C7.34679 15.6668 6.54861 14.9635 5.94694 14.1017L11.2786 10.5172ZM19.7885 15.7903L17.4117 14.2025C18.1429 13.0356 18.5311 11.6833 18.5311 10.3026C18.5311 8.92201 18.1429 7.5697 17.4117 6.40277L19.7867 4.80945L19.7885 15.7903ZM2.76503 1.71631H19.7867V4.3694L17.2099 6.0984C16.5421 5.13572 15.654 4.34971 14.621 3.80703C13.588 3.26435 12.4405 2.981 11.2759 2.981C10.1112 2.981 8.96377 3.26435 7.93076 3.80703C6.89776 4.34971 6.00967 5.13572 5.34181 6.0984L2.76503 4.3694V1.71631ZM2.76503 4.80945L5.14011 6.40277C4.40883 7.5697 4.02065 8.92201 4.02065 10.3026C4.02065 11.6833 4.40883 13.0356 5.14011 14.2025L2.76503 15.7958V4.80945Z" fill="black"/>
</svg>
