<svg width="23" height="16" viewBox="0 0 23 16" fill="none" xmlns="http://www.w3.org/2000/svg">
<path d="M21.0372 3.61229C20.4138 3.55297 20.0675 3.25277 19.703 2.94897C19.2656 2.57327 18.8117 2.18498 17.904 2.18498C16.9963 2.18498 16.5443 2.57327 16.1051 2.94897C15.7004 3.29591 15.3104 3.62308 14.5467 3.62308C13.783 3.62308 13.3911 3.29591 12.9847 2.94897C12.5472 2.57327 12.0934 2.18498 11.1857 2.18498C10.278 2.18498 9.82416 2.57327 9.38672 2.94897C8.98027 3.29591 8.59751 3.62308 7.82652 3.62308C7.05553 3.62308 6.67095 3.29591 6.2645 2.94897C5.83253 2.57327 5.37321 2.18498 4.46553 2.18498C3.55784 2.18498 3.09853 2.57327 2.66656 2.94897C2.30203 3.25996 1.9539 3.55297 1.33237 3.61229L0.743647 0.710938H0L3.0238 15.6312H19.3458L22.3696 0.710938H21.6259L21.0372 3.61229ZM18.7479 14.9121H3.61981L1.40345 3.96822C2.11794 3.89272 2.5171 3.55117 2.90533 3.22041C3.29355 2.88965 3.69272 2.54451 4.46553 2.54451C5.23834 2.54451 5.6211 2.86808 6.02573 3.2276C6.46499 3.60331 6.91701 3.98979 7.82652 3.98979C8.73603 3.98979 9.18805 3.60331 9.62549 3.2276C10.0247 2.86808 10.4147 2.54451 11.1857 2.54451C11.9567 2.54451 12.3413 2.86808 12.7459 3.2276C13.1852 3.60331 13.6372 3.98979 14.5467 3.98979C15.4562 3.98979 15.9064 3.60331 16.3457 3.2276C16.7503 2.86808 17.133 2.54451 17.904 2.54451C18.675 2.54451 19.0596 2.86808 19.4642 3.2276C19.8689 3.58713 20.2516 3.89991 20.9661 3.97541L18.7479 14.9121Z" fill="black"/>
<path d="M11.1841 10.65C11.8696 10.65 12.4253 10.1019 12.4253 9.42584C12.4253 8.74974 11.8696 8.20166 11.1841 8.20166C10.4986 8.20166 9.94287 8.74974 9.94287 9.42584C9.94287 10.1019 10.4986 10.65 11.1841 10.65Z" fill="black"/>
</svg>
