<svg width="21" height="19" viewBox="0 0 21 19" fill="none" xmlns="http://www.w3.org/2000/svg">
<path d="M12.033 2.13155L12.0336 2.13091C12.4847 1.66193 13.0221 1.2893 13.6143 1.03399C14.2026 0.781067 14.8344 0.650917 15.4723 0.650917C16.1104 0.650917 16.7423 0.781117 17.3307 1.03414C17.9233 1.28926 18.4609 1.66187 18.9123 2.13097L19.3807 1.68031L18.9127 2.13142C19.3688 2.60463 19.7303 3.16468 19.9761 3.78031C20.2221 4.39854 20.35 5.06272 20.35 5.73325C20.35 7.0912 19.7654 8.56322 18.8126 10.0458C17.8649 11.5204 16.5901 12.948 15.2972 14.2035C14.0068 15.4565 12.7138 16.5232 11.7421 17.2772C11.2568 17.6539 10.8529 17.9516 10.5713 18.1544C10.5466 18.1722 10.5228 18.1893 10.5 18.2056C10.4772 18.1893 10.4535 18.1722 10.4288 18.1544C10.1471 17.9516 9.74321 17.6539 9.25789 17.2772C8.2862 16.5232 6.99322 15.4565 5.70282 14.2035C4.40992 12.948 3.13512 11.5204 2.18744 10.0458C1.2346 8.56322 0.650006 7.0912 0.650007 5.73325L0.650006 5.73231C0.648051 4.38433 1.16524 3.0914 2.08724 2.13029L2.08733 2.1302C2.53635 1.66194 3.07204 1.29025 3.66267 1.03632C4.25291 0.782555 4.88651 0.651331 5.5265 0.650001C6.1665 0.651331 6.8001 0.782555 7.39034 1.03632C7.98097 1.29025 8.51666 1.66194 8.96568 2.1302L8.96699 2.13155L10.0322 3.23593L10.5 3.721L10.9679 3.23593L12.033 2.13155Z" stroke="black" stroke-width="1.3"/>
</svg>
