<svg width="16" height="16" viewBox="0 0 16 16" fill="none" xmlns="http://www.w3.org/2000/svg">
<path d="M12.9414 0.480469C12.2871 0.480469 11.6328 0.734375 11.125 1.24219L1.24219 11.125L1.20312 11.3203L0.519531 14.7578L0.324219 15.6758L1.24219 15.4805L4.67969 14.7969L4.875 14.7578L14.7578 4.875C15.7734 3.85938 15.7734 2.25781 14.7578 1.24219C14.25 0.734375 13.5957 0.480469 12.9414 0.480469ZM12.9414 1.67188C13.2563 1.67188 13.5737 1.81592 13.8789 2.12109C14.4868 2.729 14.4868 3.38818 13.8789 3.99609L13.4297 4.42578L11.5742 2.57031L12.0039 2.12109C12.3091 1.81592 12.6265 1.67188 12.9414 1.67188ZM10.6953 3.44922L12.5508 5.30469L4.99219 12.8633C4.58203 12.0625 3.9375 11.418 3.13672 11.0078L10.6953 3.44922ZM2.33594 12.0234C3.08545 12.3262 3.67383 12.9146 3.97656 13.6641L1.92578 14.0742L2.33594 12.0234Z" fill="#090909"/>
</svg>
