<svg width="14" height="14" viewBox="0 0 14 14" fill="none" xmlns="http://www.w3.org/2000/svg">
<rect width="14" height="14" fill="white"/>
<path d="M7 3.0625C6.28052 3.0625 5.6875 3.65552 5.6875 4.375H6.5625C6.5625 4.1272 6.7522 3.9375 7 3.9375C7.2478 3.9375 7.4375 4.1272 7.4375 4.375C7.4375 4.54761 7.34521 4.68604 7.20508 4.75781C6.771 4.98169 6.5625 5.44482 6.5625 5.87891V6.30273L0.232422 9.67969L0 9.80273V10.9375H14V9.80273L13.7676 9.67969L7.4375 6.30273V5.87891C7.4375 5.72339 7.5127 5.58325 7.60156 5.53711C8.02368 5.31836 8.3125 4.87915 8.3125 4.375C8.3125 3.65552 7.71948 3.0625 7 3.0625ZM7 7.05469L12.6328 10.0625H1.36719L7 7.05469Z" fill="#444444"/>
</svg>
