<svg width="15" height="15" viewBox="0 0 15 15" fill="none" xmlns="http://www.w3.org/2000/svg">
<path d="M14.1061 13.6441L14.2121 13.538L14.1061 13.4319L10.375 9.70088C11.2416 8.66552 11.6892 7.3409 11.6259 5.98879C11.5604 4.58968 10.9529 3.27099 9.93214 2.31195L9.82943 2.42127L9.93213 2.31195C8.91129 1.3529 7.55732 0.828817 6.15684 0.850656C4.75637 0.872495 3.41937 1.43855 2.42896 2.42896C1.43855 3.41937 0.872495 4.75637 0.850656 6.15684C0.828817 7.55732 1.3529 8.91129 2.31195 9.93213L2.42127 9.82943L2.31195 9.93214C3.27099 10.9529 4.58968 11.5604 5.9888 11.6259C7.3409 11.6892 8.66552 11.2416 9.70088 10.375L13.4319 14.1061L13.538 14.2121L13.6441 14.1061L14.1061 13.6441ZM3.79591 9.93264L3.79591 9.93264C3.06834 9.44653 2.50125 8.75551 2.16639 7.94706L2.16638 7.94705C1.83151 7.13866 1.7439 6.24905 1.91461 5.3908L1.7675 5.36154L1.91461 5.3908C2.08532 4.53256 2.50671 3.74422 3.12546 3.12546C3.74422 2.50671 4.53256 2.08532 5.3908 1.91461L5.36154 1.7675L5.3908 1.91461C6.24905 1.7439 7.13866 1.83151 7.94705 2.16638L7.94706 2.16639C8.75551 2.50125 9.44653 3.06834 9.93264 3.79591L9.93264 3.79591C10.4188 4.52345 10.6783 5.37879 10.6783 6.25381C10.677 7.42682 10.2104 8.55147 9.38094 9.38094C8.55147 10.2104 7.42682 10.677 6.25381 10.6783C5.37879 10.6783 4.52345 10.4188 3.79591 9.93264Z" fill="#1A1A1A" stroke="#1A1A1A" stroke-width="0.3"/>
</svg>
