<svg width="17" height="16" viewBox="0 0 17 16" fill="none" xmlns="http://www.w3.org/2000/svg">
<path d="M8.49995 0.478271C6.60097 0.478271 5.04234 1.76729 5.04234 3.33779V3.9097H1.62794L1.58472 4.44586L0.893196 14.7401L0.849976 15.3478H16.15L16.1067 14.7401L15.4152 4.44586L15.3719 3.9097H11.9576V3.33779C11.9576 1.76729 10.3989 0.478271 8.49995 0.478271ZM8.49995 1.62208C9.6453 1.62208 10.5745 2.39058 10.5745 3.33779V3.9097H6.42538V3.33779C6.42538 2.39058 7.35461 1.62208 8.49995 1.62208ZM2.92455 5.05351H5.04234V6.76922H6.42538V5.05351H10.5745V6.76922H11.9576V5.05351H14.0754L14.6804 14.2039H2.31946L2.92455 5.05351Z" fill="#1A1A1A"/>
</svg>
