<svg width="15" height="14" viewBox="0 0 15 14" fill="none" xmlns="http://www.w3.org/2000/svg">
<path d="M14.1061 13.0825L14.2121 12.9765L14.1061 12.8704L10.375 9.13935C11.2416 8.104 11.6892 6.77937 11.6259 5.42727C11.5604 4.02816 10.9529 2.70947 9.93214 1.75043L9.82943 1.85975L9.93213 1.75042C8.91129 0.791381 7.55732 0.267293 6.15684 0.289133C4.75637 0.310972 3.41937 0.87703 2.42896 1.86744C1.43855 2.85784 0.872495 4.19484 0.850656 5.59532C0.828817 6.99579 1.3529 8.34977 2.31195 9.37061L2.42127 9.26791L2.31195 9.37062C3.27099 10.3914 4.58968 10.9989 5.9888 11.0644C7.3409 11.1277 8.66552 10.6801 9.70088 9.8135L13.4319 13.5445L13.538 13.6506L13.6441 13.5445L14.1061 13.0825ZM3.79591 9.37112L3.79591 9.37112C3.06834 8.88501 2.50125 8.19399 2.16639 7.38553L2.16638 7.38553C1.83151 6.57714 1.7439 5.68752 1.91461 4.82928L1.7675 4.80002L1.91461 4.82928C2.08532 3.97104 2.50671 3.18269 3.12546 2.56393C3.74422 1.94518 4.53256 1.5238 5.3908 1.35309L5.36154 1.20597L5.3908 1.35309C6.24905 1.18237 7.13866 1.26999 7.94705 1.60486L7.94706 1.60486C8.75551 1.93973 9.44653 2.50681 9.93264 3.23438L9.93264 3.23439C10.4188 3.96193 10.6783 4.81726 10.6783 5.69229C10.677 6.86529 10.2104 7.98994 9.38094 8.81942C8.55147 9.64889 7.42682 10.1155 6.25381 10.1168C5.37879 10.1168 4.52345 9.85726 3.79591 9.37112Z" fill="#1A1A1A" stroke="#1A1A1A" stroke-width="0.3"/>
</svg>
