<svg width="18" height="15" viewBox="0 0 18 15" fill="none" xmlns="http://www.w3.org/2000/svg">
<path d="M8.45932 4.25356C8.53582 4.48622 8.7544 4.64279 9 4.64279C9.2456 4.64279 9.46417 4.48622 9.54068 4.25358C9.61415 4.03027 9.83059 3.44595 10.2446 2.86729L10.1632 2.80911L10.2446 2.86729C10.7062 2.22195 11.5108 1.46701 12.75 1.46701C13.6475 1.46701 14.4651 1.83178 15.0546 2.49417C15.6386 3.15049 15.9625 4.04121 15.9625 5.00421C15.9625 6.16232 15.4418 7.18898 14.5061 8.27407C13.5689 9.36101 12.2259 10.4948 10.5978 11.869C10.0841 12.3024 9.55571 12.7484 9 13.2262C8.44432 12.7485 7.91586 12.3025 7.40212 11.8689C5.77401 10.4948 4.43107 9.36099 3.49385 8.27406C2.55824 7.18898 2.0375 6.16232 2.0375 5.00421C2.0375 4.04121 2.3614 3.15049 2.94539 2.49417C3.53487 1.83178 4.35253 1.46701 5.25 1.46701C6.4892 1.46701 7.29376 2.22195 7.75542 2.86732L7.75542 2.86732C8.1694 3.44594 8.38583 4.03024 8.45932 4.25356ZM8.45932 4.25356L8.55431 4.22233L8.45932 4.25358C8.45932 4.25358 8.45932 4.25357 8.45932 4.25356ZM9.31695 2.21414L9.39828 2.27232L9.31695 2.21415C9.19816 2.38021 9.09281 2.54647 9 2.7071C8.9072 2.54647 8.80186 2.38021 8.68305 2.21414C8.0748 1.36391 6.98103 0.338477 5.25 0.338477C4.02308 0.338477 2.90101 0.838878 2.09264 1.74731L2.09264 1.74731C1.3224 2.61298 0.9 3.7702 0.9 5.00421C0.9 6.35301 1.433 7.60154 2.55955 8.92852C3.56238 10.1098 5.00254 11.3253 6.65954 12.7238L6.66519 12.7285C7.2844 13.2511 7.9242 13.7912 8.60529 14.3814L8.6257 14.3991L8.62574 14.3991C8.733 14.4921 8.86669 14.5385 9 14.5385C9.13333 14.5385 9.26701 14.4921 9.37425 14.3991L9.3743 14.3991L9.39471 14.3814C10.0739 13.7928 10.7121 13.2542 11.3298 12.7328L11.3349 12.7285L11.3404 12.7238C12.9974 11.3254 14.4376 10.1099 15.4405 8.92852C16.567 7.60151 17.1 6.35301 17.1 5.00421C17.1 3.7702 16.6776 2.61298 15.9073 1.74728L15.8326 1.81375L15.9073 1.74728C15.099 0.838845 13.9769 0.338477 12.75 0.338477C11.019 0.338477 9.9252 1.36391 9.31695 2.21414Z" fill="#1A1A1A" stroke="#1A1A1A" stroke-width="0.2"/>
</svg>
