<svg width="26" height="26" viewBox="0 0 26 26" fill="none" xmlns="http://www.w3.org/2000/svg">
<g opacity="1.1">
<path d="M9.07424 11.212C8.67161 10.4057 8.00847 9.759 7.19231 9.37671C6.37615 8.99442 5.4548 8.89895 4.5776 9.10579C3.7004 9.31263 2.91876 9.80965 2.35936 10.5163C1.79997 11.2229 1.49561 12.0978 1.49561 12.999C1.49561 13.9003 1.79997 14.7751 2.35936 15.4818C2.91876 16.1884 3.7004 16.6854 4.5776 16.8923C5.4548 17.0991 6.37615 17.0036 7.19231 16.6213C8.00847 16.2391 8.67161 15.5923 9.07424 14.786" stroke="black" stroke-width="1.5" stroke-linecap="round" stroke-linejoin="round"/>
<path d="M20.5002 9.49997C21.3732 9.50211 22.2231 9.21927 22.9208 8.6944C23.6184 8.16953 24.1257 7.43132 24.3656 6.59188C24.6055 5.75244 24.5649 4.85764 24.25 4.04339C23.935 3.22913 23.363 2.5399 22.6206 2.08038C21.8783 1.62086 21.0063 1.41616 20.137 1.49737C19.2677 1.57858 18.4487 1.94125 17.8044 2.53032C17.16 3.11938 16.7255 3.90265 16.5668 4.76115C16.4081 5.61966 16.5339 6.5065 16.9252 7.28697" stroke="black" stroke-width="1.5" stroke-linecap="round" stroke-linejoin="round"/>
<path d="M16.9248 18.712C16.5357 19.4906 16.4113 20.3748 16.5702 21.2305C16.7292 22.0863 17.1629 22.8668 17.8056 23.4537C18.4483 24.0406 19.2649 24.4019 20.1315 24.4827C20.9981 24.5635 21.8675 24.3595 22.6076 23.9015C23.3477 23.4436 23.9183 22.7567 24.2328 21.9451C24.5472 21.1335 24.5884 20.2415 24.35 19.4044C24.1116 18.5674 23.6067 17.8309 22.9118 17.3067C22.217 16.7825 21.3702 16.4993 20.4998 16.5" stroke="black" stroke-width="1.5" stroke-linecap="round" stroke-linejoin="round"/>
<path d="M20.5002 9.49999C19.7576 9.49931 19.0299 9.29194 18.3985 8.90109C17.7671 8.51024 17.257 7.95135 16.9252 7.28699L9.07422 11.212C9.35431 11.7662 9.50024 12.3785 9.50024 12.9995C9.50024 13.6205 9.35431 14.2328 9.07422 14.787L16.9252 18.713C17.257 18.0486 17.7671 17.4897 18.3985 17.0989C19.0299 16.708 19.7576 16.5007 20.5002 16.5" stroke="black" stroke-width="1.5" stroke-linecap="round" stroke-linejoin="round"/>
</g>
</svg>
