<svg width="14" height="17" viewBox="0 0 14 17" fill="none" xmlns="http://www.w3.org/2000/svg">
<path d="M8.59637 5.55699L8.59638 5.55698C8.91167 5.25232 9.12592 4.86456 9.21276 4.44295C9.21276 4.44294 9.21277 4.44294 9.21277 4.44293L8.59637 5.55699ZM8.59637 5.55699C8.28112 5.86169 7.87896 6.06956 7.44062 6.1538L7.44062 6.1538M8.59637 5.55699L7.44062 6.1538M7.44062 6.1538C7.00235 6.23806 6.54809 6.19478 6.13546 6.02959L6.13545 6.02958M7.44062 6.1538L6.13545 6.02958M6.13545 6.02958C5.72277 5.86441 5.37065 5.58491 5.12316 5.22695M6.13545 6.02958L5.12316 5.22695M5.12316 5.22695C4.87573 4.86907 4.74389 4.4487 4.74388 4.01897M5.12316 5.22695L4.74388 4.01897M4.74388 4.01897C4.74457 3.44297 4.98163 2.89002 5.40422 2.48164C5.82694 2.07315 6.40071 1.8428 6.99994 1.84212L6.99983 1.74212L4.74388 4.01897ZM6.99971 7.19928H6.99983C7.64933 7.19928 8.28443 7.01316 8.82504 6.66416L8.82505 6.66415C9.36562 6.3151 9.78744 5.81863 10.0367 5.23713L10.0367 5.23711C10.286 4.65557 10.3513 4.01543 10.2242 3.3978C10.0971 2.78019 9.78342 2.21338 9.32341 1.76882C8.86344 1.3243 8.27775 1.02194 7.64069 0.89947C7.00363 0.777005 6.34324 0.839824 5.74291 1.08011L5.74291 1.08011C5.14262 1.32041 4.62896 1.72757 4.26731 2.25061L4.34956 2.30748L4.26731 2.25061C3.90563 2.77369 3.71236 3.38905 3.71236 4.01885L3.71236 4.01897C3.71336 4.86325 4.06088 5.67194 4.67752 6.26786L4.74701 6.19595L4.67752 6.26786C5.29408 6.86367 6.12924 7.19825 6.99971 7.19928ZM13.4779 11.5204L13.4778 11.5203C11.7579 9.86179 9.42808 8.93096 6.99983 8.93096C4.57155 8.93096 2.24178 9.86179 0.521877 11.5203L0.521801 11.5204L0.278165 11.7559L0.247656 11.7853V11.8278V15.9385V16.0385H0.347656H13.652H13.752V15.9385V11.8278V11.7853L13.7215 11.7559L13.4779 11.5204ZM1.35954 12.1319L1.35959 12.1319L1.36243 12.1293C2.87679 10.7214 4.89716 9.93445 6.99983 9.93445C9.10247 9.93445 11.1229 10.7214 12.6372 12.1293L12.6372 12.1294L12.6404 12.1321C12.6401 12.1319 12.6414 12.133 12.6452 12.1365L12.6581 12.1486L12.6943 12.1826L12.7039 12.1917C12.7095 12.197 12.7151 12.2024 12.7205 12.2074V15.0349H1.27918V12.2074C1.2848 12.2021 1.29071 12.1965 1.2966 12.191L1.3054 12.1827L1.34157 12.1486L1.35452 12.1365C1.35839 12.1329 1.35974 12.1317 1.35954 12.1319Z" fill="#1A1A1A" stroke="#1A1A1A" stroke-width="0.2"/>
</svg>
