<svg width="14" height="22" viewBox="0 0 14 22" fill="none" xmlns="http://www.w3.org/2000/svg">
<path d="M11.9995 1.00416L9.40595 1C6.49221 1 4.60923 2.93188 4.60923 5.92198V8.19134H2.00156C1.77622 8.19134 1.59375 8.37402 1.59375 8.59935V11.8874C1.59375 12.1127 1.77643 12.2952 2.00156 12.2952H4.60923V20.592C4.60923 20.8173 4.7917 20.9998 5.01704 20.9998H8.41931C8.64464 20.9998 8.82712 20.8171 8.82712 20.592V12.2952H11.8761C12.1014 12.2952 12.2839 12.1127 12.2839 11.8874L12.2851 8.59935C12.2851 8.49116 12.2421 8.38754 12.1657 8.31097C12.0894 8.23441 11.9853 8.19134 11.8771 8.19134H8.82712V6.26757C8.82712 5.34293 9.04746 4.87354 10.2519 4.87354L11.9991 4.87291C12.2242 4.87291 12.4067 4.69023 12.4067 4.46511V1.41197C12.4067 1.18705 12.2244 1.00458 11.9995 1.00416Z" stroke="#8D8D8D" stroke-width="1.7"/>
</svg>
