<svg width="20" height="20" viewBox="0 0 20 20" fill="none" xmlns="http://www.w3.org/2000/svg">
<path d="M6.03516 0.375C2.92822 0.375 0.375 2.92481 0.375 6.03516V13.9648C0.375 17.0718 2.92481 19.625 6.03516 19.625H13.9648C17.0718 19.625 19.625 17.0752 19.625 13.9648V6.03516C19.625 2.92822 17.0752 0.375 13.9648 0.375H6.03516ZM6.03516 2.125H13.9648C16.1284 2.125 17.875 3.87158 17.875 6.03516V13.9648C17.875 16.1284 16.1284 17.875 13.9648 17.875H6.03516C3.87158 17.875 2.125 16.1284 2.125 13.9648V6.03516C2.125 3.87158 3.87158 2.125 6.03516 2.125ZM15.168 4.03906C14.7271 4.03906 14.375 4.39111 14.375 4.83203C14.375 5.27295 14.7271 5.625 15.168 5.625C15.6089 5.625 15.9609 5.27295 15.9609 4.83203C15.9609 4.39111 15.6089 4.03906 15.168 4.03906ZM10 4.75C7.11182 4.75 4.75 7.11182 4.75 10C4.75 12.8882 7.11182 15.25 10 15.25C12.8882 15.25 15.25 12.8882 15.25 10C15.25 7.11182 12.8882 4.75 10 4.75ZM10 6.5C11.9448 6.5 13.5 8.05518 13.5 10C13.5 11.9448 11.9448 13.5 10 13.5C8.05518 13.5 6.5 11.9448 6.5 10C6.5 8.05518 8.05518 6.5 10 6.5Z" fill="#8D8D8D"/>
</svg>
