<svg width="30" height="18" viewBox="0 0 30 18" fill="none" xmlns="http://www.w3.org/2000/svg">
<path d="M28.7505 15.2614C28.6752 15.1354 28.2097 14.1238 25.9695 12.0447C23.6243 9.86753 23.9393 10.2211 26.7641 6.45652C28.4844 4.16385 29.1722 2.76375 28.957 2.1652C28.7522 1.59466 27.4869 1.74517 27.4869 1.74517L23.2795 1.76967C23.2795 1.76967 22.968 1.72767 22.7353 1.86593C22.5095 2.00244 22.3642 2.31746 22.3642 2.31746C22.3642 2.31746 21.6974 4.0921 20.8084 5.60071C18.934 8.78419 18.1832 8.95221 17.8769 8.75444C17.1646 8.29416 17.3431 6.90281 17.3431 5.91573C17.3431 2.83025 17.8104 1.54391 16.4313 1.21138C15.9728 1.10112 15.6367 1.02762 14.4659 1.01537C12.9643 0.999616 11.6919 1.02062 10.9726 1.37239C10.4931 1.60691 10.1238 2.1302 10.3496 2.15995C10.6279 2.19671 11.2579 2.32972 11.5922 2.78475C12.0245 3.37104 12.0087 4.69064 12.0087 4.69064C12.0087 4.69064 12.2572 8.32216 11.4294 8.77369C10.8606 9.08347 10.0818 8.45167 8.41044 5.56221C7.55463 4.08335 6.90708 2.44697 6.90708 2.44697C6.90708 2.44697 6.78282 2.14245 6.56055 1.97969C6.29103 1.78192 5.91301 1.71892 5.91301 1.71892L1.91221 1.74342C1.91221 1.74342 1.31191 1.76092 1.0914 2.02169C0.895383 2.25446 1.07565 2.73399 1.07565 2.73399C1.07565 2.73399 4.20838 10.0618 7.75414 13.7563C11.0076 17.1428 14.7004 16.9206 14.7004 16.9206H16.3735C16.3735 16.9206 16.8793 16.8645 17.1366 16.5863C17.3746 16.3308 17.3659 15.8512 17.3659 15.8512C17.3659 15.8512 17.3326 13.6058 18.3757 13.275C19.403 12.9495 20.7226 15.4452 22.121 16.406C23.178 17.1323 23.9813 16.9731 23.9813 16.9731L27.7214 16.9206C27.7214 16.9206 29.678 16.7998 28.7505 15.2614Z" stroke="#8D8D8D" stroke-width="1.7"/>
</svg>
