<svg width="17" height="16" viewBox="0 0 17 16" fill="none" xmlns="http://www.w3.org/2000/svg">
<path d="M8.49959 0.916748C6.6006 0.916748 5.04197 2.20577 5.04197 3.77627V4.34818H1.62757L1.58435 4.88434L0.89283 15.1786L0.849609 15.7863H16.1496L16.1063 15.1786L15.4148 4.88434L15.3716 4.34818H11.9572V3.77627C11.9572 2.20577 10.3986 0.916748 8.49959 0.916748ZM8.49959 2.06056C9.64493 2.06056 10.5742 2.82905 10.5742 3.77627V4.34818H6.42502V3.77627C6.42502 2.82905 7.35425 2.06056 8.49959 2.06056ZM2.92418 5.49198H5.04197V7.2077H6.42502V5.49198H10.5742V7.2077H11.9572V5.49198H14.075L14.68 14.6424H2.31909L2.92418 5.49198Z" fill="#1A1A1A"/>
</svg>
