<svg width="17" height="17" viewBox="0 0 17 17" fill="none" xmlns="http://www.w3.org/2000/svg">
<path d="M10.2812 0.78125C7.00867 0.78125 4.34375 3.44617 4.34375 6.71875C4.34375 8.1405 4.84241 9.44397 5.67969 10.4668L0.948242 15.1982L1.80176 16.0518L6.5332 11.3203C7.55603 12.1576 8.8595 12.6562 10.2812 12.6562C13.5538 12.6562 16.2188 9.99133 16.2188 6.71875C16.2188 3.44617 13.5538 0.78125 10.2812 0.78125ZM10.2812 1.96875C12.9114 1.96875 15.0312 4.08862 15.0312 6.71875C15.0312 9.34888 12.9114 11.4688 10.2812 11.4688C7.65112 11.4688 5.53125 9.34888 5.53125 6.71875C5.53125 4.08862 7.65112 1.96875 10.2812 1.96875Z" fill="black"/>
</svg>
