<svg width="15" height="15" viewBox="0 0 15 15" fill="none" xmlns="http://www.w3.org/2000/svg">
<path fill-rule="evenodd" clip-rule="evenodd" d="M12.5492 2.45544C11.2086 1.11487 9.42737 0.375 7.53015 0.375C3.61975 0.375 0.435303 3.55713 0.435303 7.46753C0.432983 8.71765 0.76001 9.93762 1.38159 11.0138L0.375 14.6899L4.13696 13.7019C5.17139 14.2678 6.34033 14.5647 7.52783 14.567H7.53015C11.4406 14.567 14.6227 11.3849 14.625 7.47217C14.625 5.57727 13.8875 3.79602 12.5492 2.45544ZM7.53015 13.3679H7.52783C6.47021 13.3679 5.43115 13.0826 4.52661 12.5469L4.31091 12.4193L2.07739 13.0038L2.67346 10.8282L2.5343 10.6056C1.94287 9.66626 1.63208 8.58081 1.63208 7.46753C1.63208 4.21814 4.27844 1.5741 7.53247 1.5741C9.1073 1.5741 10.587 2.18872 11.7003 3.302C12.8136 4.4176 13.4259 5.89734 13.4259 7.47217C13.4259 10.7239 10.7795 13.3679 7.53015 13.3679ZM10.7633 8.9519C10.587 8.86377 9.71497 8.43469 9.55261 8.37671C9.39026 8.31641 9.27197 8.28857 9.15369 8.46484C9.0354 8.64343 8.69678 9.04236 8.59241 9.16064C8.49036 9.27661 8.38599 9.29285 8.20972 9.20471C8.03113 9.11658 7.46057 8.92871 6.78333 8.32336C6.25684 7.85486 5.89966 7.27271 5.79761 7.09644C5.69324 6.91785 5.78601 6.82275 5.87415 6.73462C5.95532 6.65576 6.05273 6.5282 6.14087 6.42383C6.229 6.32178 6.25915 6.24756 6.31946 6.12927C6.37744 6.01099 6.34729 5.90662 6.30322 5.81848C6.25916 5.73035 5.9043 4.85596 5.75586 4.5011C5.61206 4.15552 5.46594 4.20422 5.35693 4.19727C5.25488 4.19263 5.1366 4.19263 5.01831 4.19263C4.90002 4.19263 4.70752 4.23669 4.54517 4.41528C4.38281 4.59155 3.9259 5.02063 3.9259 5.8927C3.9259 6.76477 4.5614 7.60901 4.64954 7.72729C4.73767 7.84326 5.89966 9.63379 7.67859 10.4015C8.10071 10.5847 8.43005 10.6937 8.6875 10.7749C9.11194 10.9094 9.49927 10.8909 9.80542 10.8468C10.1464 10.7958 10.8538 10.4177 11.0022 10.0026C11.1483 9.58972 11.1483 9.23486 11.1042 9.16064C11.0602 9.08643 10.9419 9.04236 10.7633 8.9519Z" fill="black"/>
</svg>
