<?xml version="1.0" encoding="utf-8"?>
<!-- Generator: Adobe Illustrator 21.0.2, SVG Export Plug-In . SVG Version: 6.00 Build 0)  -->
<!DOCTYPE svg PUBLIC "-//W3C//DTD SVG 1.1//EN" "http://www.w3.org/Graphics/SVG/1.1/DTD/svg11.dtd">
<svg version="1.1" id="Layer_1" xmlns="http://www.w3.org/2000/svg" xmlns:xlink="http://www.w3.org/1999/xlink" x="0px" y="0px"
	 viewBox="0 0 210 58" style="enable-background:new 0 0 210 58;" xml:space="preserve">
<style type="text/css">
	.st0{fill:#299E30;}
	.st1{fill:#F59624;}
</style>
<g>
	<path class="st0" d="M77,15.2c0-6.2,3.6-10.2,10.2-10.2c2.9,0,4.7,0.6,5.9,1.1l-0.9,2.3c-1.6-0.5-2.7-0.9-5-0.9
		c-4,0-7.1,2.1-7.1,7.4c0,5.4,3.3,7.7,7.7,7.7c1.9,0,3.3-0.3,4.6-0.7l0.7,2.3c-1.5,0.6-3.1,1-5.8,1C80.5,25.3,77,21.3,77,15.2
		 M106.4,17.5c0-2.4-1-4.3-3.8-4.3c-1.8,0-3.2,0.6-4.6,1.3l-0.1,1.7c0,4.5,1.4,6.6,4.2,6.6C105.4,22.8,106.4,20.1,106.4,17.5
		 M95.1,16.5c0-3.1,0.6-8,2.4-9.6c1.5-1.4,5.7-2.4,10.5-3.3l0.5,2.6c-4.3,0.7-8.1,1.4-9,2.3c-0.8,0.8-1.2,2.6-1.4,3.9
		c1.3-0.7,3.1-1.4,5.2-1.4c3.7,0,6,1.8,6,6.4c0,5.4-3.2,7.8-7.4,7.8C97.7,25.2,95.1,22.6,95.1,16.5 M121.8,16c0-2.7-1-4.4-3.2-4.4
		c-2,0-3.5,1.5-3.7,4.4C114.9,16,121.8,16,121.8,16z M111.8,17.6c0-6,3.1-8.2,7-8.2c4.3,0,6.1,2.7,6.1,7.6v1h-10.1
		c0,4,2.3,4.8,5,4.8c1.5,0,2.7-0.2,4.2-0.7l0.5,2.2c-1.4,0.5-3.2,0.8-5.2,0.8C114.7,25.4,111.8,23.5,111.8,17.6"/>
	<path class="st0" d="M138.3,17.1c0-2.7-1-5.2-3.9-5.2c-1.6,0-2.8,0.7-3.6,1.1v9.6c0.4,0.1,1.6,0.3,2.6,0.3
		C136.9,22.9,138.3,20.5,138.3,17.1 M127.8,9.8h2.9V11c1.3-0.9,2.5-1.6,4.4-1.6c3.6,0,6.1,2.5,6.1,7.5c0,6.2-3.7,8.3-7.9,8.3
		c-1,0-2-0.1-2.7-0.2v6h-2.9L127.8,9.8L127.8,9.8z M155.1,17.5c0-2.4-1-4.3-3.8-4.3c-1.8,0-3.2,0.6-4.6,1.3l-0.1,1.7
		c0,4.5,1.4,6.6,4.2,6.6C154.2,22.8,155.1,20.1,155.1,17.5 M143.8,16.5c0-3.1,0.6-8,2.4-9.6c1.5-1.4,5.7-2.4,10.5-3.3l0.5,2.6
		c-4.3,0.7-8.1,1.4-9,2.3c-0.8,0.8-1.2,2.6-1.4,3.9c1.3-0.7,3.1-1.4,5.2-1.4c3.7,0,6,1.8,6,6.4c0,5.4-3.2,7.8-7.4,7.8
		S143.8,22.6,143.8,16.5 M169.4,21.5V18l-3.3,0.1c-2.1,0.1-3.3,0.9-3.3,2.5c0,1.5,1.1,2.2,2.6,2.2C166.8,23,168.3,22.2,169.4,21.5
		 M159.9,20.9c0-3.8,3.4-4.6,6.1-4.6l3.4-0.1v-1.6c0-2.1-1.1-2.6-3.3-2.6c-1.6,0-3,0.3-4.3,0.7l-0.6-2.2c1.4-0.6,3.2-1,5.4-1
		c3.7,0,5.7,1.3,5.7,4.4v7.8c0,0.9,0.8,1.1,1.6,1.2l-0.2,2.2l-0.6,0.1c-1.6,0-3.1-0.5-3.4-1.8c-1,0.7-2.5,1.9-5,1.9
		C161.8,25.3,159.9,23.7,159.9,20.9"/>
	<path class="st0" d="M176.4,9.8h3v6.4h7.2V9.9h3V25h-3v-6.4h-7.2V25h-3V9.8z M200.6,22.4l-4.4-5.2l6.1-7.4h3.3l-6.3,7.2l3.1,3.3
		c1.4,1.5,2.6,2.4,3.8,2.7l-0.5,2.2C204.4,25.1,202.7,24.9,200.6,22.4 M193.2,9.9h3v15.2h-3C193.2,25.1,193.2,9.9,193.2,9.9z"/>
	<path class="st1" d="M93.8,43c0-4.4-2.2-7.7-6.8-7.7c-4.8,0-6.9,3.3-6.9,7.6c0,4.2,2,7.8,6.7,7.8C91.8,50.6,93.8,47.2,93.8,43
		 M77,42.8c0-6.2,3.8-10,10.1-10c6.6,0,9.7,4.3,9.7,10.1C96.8,49,93.2,53,86.6,53C80.3,53,77,48.9,77,42.8"/>
	<path class="st1" d="M100.2,37.6h2.9V44h7.3v-6.4h2.9v15.2h-2.9v-6.5h-7.3v6.5h-2.9V37.6z M115.2,50.8c1-0.4,2.3-1,3-2.2
		c0.8-1.6,1.4-5.7,1.5-11h9.9v15.2h-2.9V39.8h-4.4c-0.4,5.3-1,8.5-2,10.4c-0.9,1.5-2.3,2.4-4.3,3C116,53.2,115.2,50.8,115.2,50.8z
		 M141.8,49.4v-3.5l-3.3,0.1c-2.1,0.1-3.3,0.9-3.3,2.5c0,1.5,1.1,2.2,2.6,2.2C139.2,50.7,140.7,50.1,141.8,49.4 M132.4,48.7
		c0-3.8,3.4-4.6,6.1-4.6l3.4-0.1v-1.6c0-2.1-1.1-2.6-3.3-2.6c-1.6,0-3,0.3-4.3,0.7l-0.6-2.2c1.4-0.6,3.2-1,5.4-1
		c3.7,0,5.7,1.3,5.7,4.4v7.9c0,0.9,0.8,1.1,1.6,1.2l-0.2,2.2l-0.6,0.1c-1.6,0-3.1-0.5-3.4-1.8c-1,0.7-2.5,1.9-5,1.9
		C134.2,53,132.4,51.5,132.4,48.7"/>
	<path class="st1" d="M151.2,32.5l1.3-1.4c1.1,1.3,2.2,1.7,3.3,1.7s2.3-0.4,3.4-1.7l1.2,1.4c-1,1.6-2.7,2.6-4.6,2.6
		C153.9,35,152.2,34,151.2,32.5 M148.9,37.5h3v9.3l-0.1,2l1.3-2.1l6.6-9.2h3v15.2h-3v-9.2l0.1-2.1l-1.3,2.1l-6.6,9.2h-3V37.5z
		 M166.6,37.6h2.9V44h7.3v-6.4h2.9v15.2h-2.9v-6.5h-7.3v6.5h-2.9V37.6z"/>
	<path class="st0" d="M22.1,17.6L49,2.3c-1.1-0.6-2.3-1.2-3.5-1.7L22.1,13.8L11.7,7.9c-0.7,0.8-1.4,1.7-2.1,2.6
		C9.6,10.5,22.1,17.6,22.1,17.6z M54.6,6.5C53.8,5.7,52.9,5,52,4.3l-29.9,17L7.8,13.2c-0.5,0.9-1,1.9-1.5,2.9L22,25
		C22,25,54.6,6.5,54.6,6.5z M22.1,28.8L5.2,19.1c-0.3,1.1-0.6,2.1-0.8,3.3l17.7,10l36.8-20.8c-0.6-0.9-1.3-1.8-2-2.6L22.1,28.8z
		 M63.8,27.9c0,16.3-13.4,29.5-30,29.5c-16.5,0-30-13.2-30-29.5c0-0.7,0-1.3,0.1-2L22,36.2l38.4-21.8C62.6,18.5,63.8,23.1,63.8,27.9
		"/>
</g>
</svg>
