<?xml version="1.0" encoding="utf-8"?>
<!-- Generator: Adobe Illustrator 22.0.1, SVG Export Plug-In . SVG Version: 6.00 Build 0)  -->
<!DOCTYPE svg PUBLIC "-//W3C//DTD SVG 1.1//EN" "http://www.w3.org/Graphics/SVG/1.1/DTD/svg11.dtd">
<svg version="1.1" id="Layer_1" xmlns="http://www.w3.org/2000/svg" xmlns:xlink="http://www.w3.org/1999/xlink" x="0px" y="0px"
	 viewBox="0 0 303 98.4" style="enable-background:new 0 0 303 98.4;" xml:space="preserve">
<style type="text/css">
	.st0{clip-path:url(#SVGID_2_);fill:url(#XMLID_8_);}
</style>
<g>
	<defs>
		<path id="SVGID_1_" d="M88.4,1.7L63.2,65.5L53,11.3c-1.2-6.1-5.9-9.6-11.2-9.6H0.6L0,4.4c8.5,1.8,18.1,4.8,23.9,8
			c3.6,1.9,4.6,3.6,5.8,8.2L49,95.4h25.6l39.3-93.7H88.4z M124.3,1.7l-20.1,93.7h24.2l20-93.7H124.3z M263.3,27l7.3,35.2h-20.1
			L263.3,27z M259.7,1.7c-4.7,0-8.6,2.7-10.3,6.9L213,95.4h25.5l5.1-14h31.1l2.9,14H300L280.4,1.7H259.7z M155.1,31
			c-0.2,13.5,12,21,21.2,25.5c9.4,4.6,12.6,7.5,12.6,11.6c-0.1,6.3-7.5,9.1-14.5,9.2c-12.2,0.2-19.3-3.3-24.9-5.9l-4.4,20.5
			c5.7,2.6,16.1,4.9,27,5c25.5,0,42.1-12.6,42.2-32.1c0.1-24.7-34.2-26.1-34-37.1c0.1-3.4,3.3-6.9,10.3-7.8
			c3.5-0.5,13.1-0.8,23.9,4.2l4.3-19.9C212.9,2,205.4,0,196.1,0C172.1,0,155.3,12.7,155.1,31"/>
	</defs>
	<clipPath id="SVGID_2_">
		<use xlink:href="#SVGID_1_"  style="overflow:visible;"/>
	</clipPath>
	
		<linearGradient id="XMLID_8_" gradientUnits="userSpaceOnUse" x1="-52.1442" y1="653.8707" x2="-49.7735" y2="653.8707" gradientTransform="matrix(126.5456 0 0 -126.5456 6598.6123 82792.8828)">
		<stop  offset="0" style="stop-color:#24C8FF"/>
		<stop  offset="1" style="stop-color:#037CC8"/>
	</linearGradient>
	<rect id="XMLID_6_" y="0" class="st0" width="300" height="96.9"/>
</g>
</svg>
