<svg width="38" height="39" viewBox="0 0 38 39" fill="none" xmlns="http://www.w3.org/2000/svg">
<path d="M37.5 19.5C37.5 30.0057 29.2051 38.5 19 38.5C8.7949 38.5 0.5 30.0057 0.5 19.5C0.5 8.99427 8.7949 0.5 19 0.5C29.2051 0.5 37.5 8.99427 37.5 19.5Z" stroke="white"/>
<path d="M27.3536 20.3536C27.5488 20.1583 27.5488 19.8417 27.3536 19.6464L24.1716 16.4645C23.9763 16.2692 23.6597 16.2692 23.4645 16.4645C23.2692 16.6597 23.2692 16.9763 23.4645 17.1716L26.2929 20L23.4645 22.8284C23.2692 23.0237 23.2692 23.3403 23.4645 23.5355C23.6597 23.7308 23.9763 23.7308 24.1716 23.5355L27.3536 20.3536ZM10 20.5L27 20.5V19.5L10 19.5V20.5Z" fill="white"/>
</svg>
