<svg width="25" height="23" viewBox="0 0 25 23" fill="none" xmlns="http://www.w3.org/2000/svg">
<path d="M23.0722 2.03406C22.4639 1.39111 21.7383 0.879535 20.9375 0.529C20.1407 0.180611 19.2845 0.0011106 18.4195 0.0011106C17.5544 0.0011106 16.6982 0.180611 15.9014 0.529C15.1011 0.879768 14.376 1.39132 13.7681 2.03406L12.5 3.37094L11.232 2.03406C10.6262 1.39169 9.9026 0.880899 9.10366 0.531624C8.30472 0.182349 7.44646 0.00161136 6.57917 0C5.71189 0.00161136 4.85363 0.182349 4.05469 0.531624C3.25575 0.880899 2.53218 1.39169 1.9264 2.03406C0.68896 3.34572 -0.00260624 5.10702 7.38129e-06 6.94025C7.38129e-06 14.375 12.5 23 12.5 23C12.5 23 25 14.375 25 6.94025C25 6.02887 24.8292 5.12612 24.5 4.28519C24.1705 3.44563 23.6854 2.6809 23.0722 2.03406Z" fill="black"/>
</svg>
