<svg width="20" height="18" viewBox="0 0 20 18" fill="none" xmlns="http://www.w3.org/2000/svg">
<path d="M5.26334 0.650001C4.65754 0.651261 4.05787 0.774827 3.49934 1.01369C2.94043 1.25272 2.4337 1.60252 2.00908 2.04299L2.00899 2.04309C1.1369 2.94739 0.648158 4.16335 0.650005 5.43055L0.650007 5.4315C0.650006 6.7077 1.20261 8.09521 2.10847 9.49727C3.00907 10.8912 4.22121 12.2417 5.45159 13.4302C6.67944 14.6162 7.90989 15.6259 8.8347 16.3399C9.29658 16.6964 9.68093 16.9782 9.94892 17.1702C9.96645 17.1828 9.98348 17.195 10 17.2068C10.0165 17.195 10.0336 17.1828 10.0511 17.1702C10.3191 16.9782 10.7034 16.6964 11.1653 16.3399C12.0901 15.6259 13.3206 14.6162 14.5484 13.4302C15.7788 12.2417 16.9909 10.8912 17.8915 9.49727C18.7974 8.09521 19.35 6.7077 19.35 5.4315C19.35 4.80127 19.2292 4.17693 18.9968 3.59568L5.26334 0.650001ZM5.26334 0.650001C5.86913 0.651261 6.4688 0.774827 7.02734 1.01369C7.58625 1.25272 8.09297 1.60252 8.51759 2.043L8.5189 2.04435L9.53335 3.0906L10 3.57189L10.4667 3.0906L11.4811 2.04435L11.4817 2.0437C11.9083 1.60252 12.4166 1.25182 12.9771 1.01149C13.5338 0.773417 14.1317 0.650869 14.7356 0.650869C15.3394 0.650869 15.9374 0.773427 16.4941 1.01152L5.26334 0.650001ZM17.9906 2.04376C17.5637 1.60247 17.0551 1.25179 16.4944 1.01163L17.9906 2.04376ZM17.9906 2.04376L18.4577 1.59191M17.9906 2.04376L18.4577 1.59191M18.4577 1.59191L17.991 2.04421M18.4577 1.59191L17.991 2.04421M17.991 2.04421C18.4224 2.48944 18.7642 3.01622 18.9965 3.59509L17.991 2.04421Z" fill="black" stroke="black" stroke-width="1.3"/>
</svg>
