<svg width="16" height="16" viewBox="0 0 16 16" fill="none" xmlns="http://www.w3.org/2000/svg">
<path d="M0.587891 14.4434C0.333984 14.6973 0.324219 15.1172 0.587891 15.3711C0.851562 15.6348 1.27148 15.6348 1.52539 15.3711L8 8.90625L14.4648 15.3711C14.7188 15.6348 15.1484 15.6348 15.4023 15.3711C15.6562 15.1172 15.6562 14.6973 15.4023 14.4434L8.92773 7.96875L15.4023 1.49414C15.6562 1.24023 15.666 0.810547 15.4023 0.556641C15.1387 0.302734 14.7188 0.302734 14.4648 0.556641L8 7.03125L1.52539 0.556641C1.27148 0.302734 0.841797 0.292969 0.587891 0.556641C0.333984 0.820312 0.333984 1.24023 0.587891 1.49414L7.0625 7.96875L0.587891 14.4434Z" fill="black"/>
</svg>
