<svg width="17" height="17" viewBox="0 0 17 17" fill="none" xmlns="http://www.w3.org/2000/svg">
<path d="M12.1562 16.0234C13.5156 16.0234 14.4141 15.6562 15.2109 14.7656C15.2734 14.7031 15.3281 14.6328 15.3906 14.5703C15.8594 14.0469 16.0781 13.5312 16.0781 13.0391C16.0781 12.4766 15.75 11.9531 15.0547 11.4688L12.7812 9.89062C12.0781 9.40625 11.2578 9.35156 10.6016 10L10 10.6016C9.82031 10.7812 9.66406 10.7891 9.48438 10.6797C9.07031 10.4141 8.21875 9.67188 7.64062 9.09375C7.03125 8.49219 6.4375 7.82031 6.13281 7.32812C6.02344 7.14844 6.03906 7 6.21875 6.82031L6.8125 6.21875C7.46875 5.5625 7.41406 4.73438 6.92969 4.03906L5.34375 1.76562C4.86719 1.07031 4.34375 0.75 3.78125 0.742188C3.28906 0.734375 2.77344 0.960938 2.25 1.42969C2.17969 1.49219 2.11719 1.54688 2.04688 1.60156C1.16406 2.39844 0.796875 3.29688 0.796875 4.64844C0.796875 6.88281 2.17188 9.60156 4.69531 12.125C7.20312 14.6328 9.92969 16.0234 12.1562 16.0234ZM12.1641 14.8203C10.1719 14.8594 7.61719 13.3281 5.59375 11.3125C3.55469 9.28125 1.95312 6.64062 1.99219 4.64844C2.00781 3.78906 2.30469 3.04688 2.92188 2.51562C2.96875 2.46875 3.01562 2.42969 3.07031 2.39062C3.29688 2.1875 3.55469 2.07812 3.77344 2.07812C4.00781 2.07812 4.21094 2.16406 4.35938 2.39844L5.875 4.67188C6.03906 4.91406 6.05469 5.1875 5.8125 5.42969L5.125 6.11719C4.57812 6.65625 4.625 7.3125 5.01562 7.83594C5.46094 8.4375 6.23438 9.3125 6.82812 9.90625C7.42969 10.5078 8.375 11.3516 8.97656 11.8047C9.5 12.1953 10.1641 12.2344 10.7031 11.6953L11.3906 11.0078C11.6328 10.7656 11.8984 10.7812 12.1406 10.9375L14.4141 12.4531C14.6484 12.6094 14.7422 12.8047 14.7422 13.0391C14.7422 13.2656 14.6328 13.5156 14.4219 13.75C14.3828 13.8047 14.3516 13.8438 14.3047 13.8984C13.7656 14.5078 13.0234 14.8047 12.1641 14.8203Z" fill="black"/>
</svg>
