<svg width="18" height="22" viewBox="0 0 18 22" fill="none" xmlns="http://www.w3.org/2000/svg">
<path d="M8.99609 14.2871C9.31836 14.2871 9.5918 14.0234 9.5918 13.7012V3.19336L9.55273 1.77734L10.4219 2.66602L12.082 4.39453C12.1895 4.51172 12.3457 4.58008 12.4922 4.58008C12.7949 4.58008 13.0391 4.3457 13.0391 4.04297C13.0391 3.88672 12.9805 3.75977 12.8633 3.65234L9.42578 0.292969C9.2793 0.146484 9.15234 0.0878906 8.99609 0.0878906C8.84961 0.0878906 8.71289 0.146484 8.56641 0.292969L5.12891 3.65234C5.01172 3.75977 4.95312 3.88672 4.95312 4.04297C4.95312 4.3457 5.17773 4.58008 5.49023 4.58008C5.63672 4.58008 5.80273 4.51172 5.91016 4.39453L7.57031 2.66602L8.44922 1.76758L8.40039 3.19336V13.7012C8.40039 14.0234 8.67383 14.2871 8.99609 14.2871ZM3.37109 21.8066H14.6113C16.5254 21.8066 17.4922 20.8301 17.4922 18.9551V9.20898C17.4922 7.33398 16.5254 6.35742 14.6113 6.35742H11.8281V7.56836H14.5918C15.666 7.56836 16.2812 8.1543 16.2812 9.27734V18.8867C16.2812 20.0195 15.666 20.5957 14.5918 20.5957H3.40039C2.29688 20.5957 1.70117 20.0195 1.70117 18.8867V9.27734C1.70117 8.1543 2.29688 7.56836 3.40039 7.56836H6.16406V6.35742H3.37109C1.4668 6.35742 0.490234 7.32422 0.490234 9.20898V18.9551C0.490234 20.8398 1.4668 21.8066 3.37109 21.8066Z" fill="black"/>
</svg>
