<svg width="21" height="26" viewBox="0 0 21 26" fill="none" xmlns="http://www.w3.org/2000/svg">
<path d="M10.6455 16.4302C11.0161 16.4302 11.3306 16.127 11.3306 15.7563V3.67236L11.2856 2.04395L12.2852 3.06592L14.1943 5.05371C14.3179 5.18848 14.4976 5.26709 14.666 5.26709C15.0142 5.26709 15.2949 4.99756 15.2949 4.64941C15.2949 4.46973 15.2275 4.32373 15.0928 4.2002L11.1396 0.336914C10.9712 0.168457 10.8252 0.101074 10.6455 0.101074C10.4771 0.101074 10.3198 0.168457 10.1514 0.336914L6.19824 4.2002C6.06348 4.32373 5.99609 4.46973 5.99609 4.64941C5.99609 4.99756 6.25439 5.26709 6.61377 5.26709C6.78223 5.26709 6.97314 5.18848 7.09668 5.05371L9.00586 3.06592L10.0166 2.03271L9.96045 3.67236V15.7563C9.96045 16.127 10.2749 16.4302 10.6455 16.4302ZM4.17676 25.0776H17.103C19.3042 25.0776 20.416 23.9546 20.416 21.7983V10.5903C20.416 8.43408 19.3042 7.31104 17.103 7.31104H13.9023V8.70361H17.0806C18.3159 8.70361 19.0234 9.37744 19.0234 10.6689V21.7197C19.0234 23.0225 18.3159 23.6851 17.0806 23.6851H4.21045C2.94141 23.6851 2.25635 23.0225 2.25635 21.7197V10.6689C2.25635 9.37744 2.94141 8.70361 4.21045 8.70361H7.38867V7.31104H4.17676C1.98682 7.31104 0.86377 8.42285 0.86377 10.5903V21.7983C0.86377 23.9658 1.98682 25.0776 4.17676 25.0776Z" fill="black"/>
<path d="M11.3306 3.67236H11.6307L11.6305 3.66409L11.3306 3.67236ZM11.2856 2.04395L11.5001 1.83418L10.9646 1.28667L10.9858 2.05222L11.2856 2.04395ZM12.2852 3.06592L12.5015 2.8581L12.4996 2.85616L12.2852 3.06592ZM14.1943 5.05371L14.4155 4.85094L14.4107 4.8459L14.1943 5.05371ZM15.0928 4.2002L14.883 4.41486L14.8901 4.42134L15.0928 4.2002ZM11.1396 0.336914L10.9275 0.54906L10.93 0.55147L11.1396 0.336914ZM10.1514 0.336914L10.3611 0.551484L10.3635 0.549046L10.1514 0.336914ZM6.19824 4.2002L6.40106 4.42145L6.40792 4.41475L6.19824 4.2002ZM7.09668 5.05371L6.88025 4.84584L6.87553 4.85099L7.09668 5.05371ZM9.00586 3.06592L8.7914 2.85612L8.78949 2.85811L9.00586 3.06592ZM10.0166 2.03271L10.3164 2.04298L10.3429 1.27017L9.80215 1.82293L10.0166 2.03271ZM9.96045 3.67236L9.66045 3.66209V3.67236H9.96045ZM13.9023 7.31104V7.01103H13.6023V7.31104H13.9023ZM13.9023 8.70361H13.6023V9.00361H13.9023V8.70361ZM7.38867 8.70361V9.00361H7.68867V8.70361H7.38867ZM7.38867 7.31104H7.68867V7.01103H7.38867V7.31104ZM10.6455 16.7302C11.1753 16.7302 11.6306 16.299 11.6306 15.7563H11.0306C11.0306 15.9549 10.8569 16.1302 10.6455 16.1302V16.7302ZM11.6306 15.7563V3.67236H11.0306V15.7563H11.6306ZM11.6305 3.66409L11.5855 2.03567L10.9858 2.05222L11.0307 3.68064L11.6305 3.66409ZM11.0712 2.25371L12.0707 3.27568L12.4996 2.85616L11.5001 1.83418L11.0712 2.25371ZM12.0688 3.27373L13.978 5.26152L14.4107 4.8459L12.5015 2.85811L12.0688 3.27373ZM13.9732 5.25643C14.1515 5.45091 14.4104 5.56709 14.666 5.56709V4.96709C14.5847 4.96709 14.4843 4.92604 14.4155 4.85099L13.9732 5.25643ZM14.666 5.56709C15.1727 5.56709 15.5949 5.17027 15.5949 4.64941H14.9949C14.9949 4.82485 14.8556 4.96709 14.666 4.96709V5.56709ZM15.5949 4.64941C15.5949 4.38098 15.4887 4.15618 15.2955 3.97905L14.8901 4.42134C14.9663 4.49128 14.9949 4.55847 14.9949 4.64941H15.5949ZM15.3025 3.98564L11.3493 0.122358L10.93 0.55147L14.8831 4.41475L15.3025 3.98564ZM11.3518 0.124782C11.1432 -0.0838226 10.925 -0.198926 10.6455 -0.198926V0.401074C10.7254 0.401074 10.7992 0.420737 10.9275 0.549046L11.3518 0.124782ZM10.6455 -0.198926C10.3798 -0.198926 10.1501 -0.086098 9.93923 0.124782L10.3635 0.549046C10.4895 0.423012 10.5743 0.401074 10.6455 0.401074V-0.198926ZM9.94169 0.122358L5.98856 3.98564L6.40792 4.41475L10.361 0.55147L9.94169 0.122358ZM5.99552 3.97905C5.80229 4.15618 5.69609 4.38098 5.69609 4.64941H6.29609C6.29609 4.55847 6.32467 4.49128 6.40096 4.42134L5.99552 3.97905ZM5.69609 4.64941C5.69609 5.15963 6.08512 5.56709 6.61377 5.56709V4.96709C6.42367 4.96709 6.29609 4.83549 6.29609 4.64941H5.69609ZM6.61377 5.56709C6.86389 5.56709 7.13585 5.45495 7.31783 5.25643L6.87553 4.85099C6.81044 4.922 6.70056 4.96709 6.61377 4.96709V5.56709ZM7.31305 5.26152L9.22223 3.27373L8.78949 2.85811L6.88031 4.8459L7.31305 5.26152ZM9.22031 3.27571L10.2311 2.2425L9.80215 1.82293L8.79141 2.85613L9.22031 3.27571ZM9.71678 2.02245L9.66062 3.6621L10.2603 3.68263L10.3164 2.04298L9.71678 2.02245ZM9.66045 3.67236V15.7563H10.2604V3.67236H9.66045ZM9.66045 15.7563C9.66045 16.299 10.1157 16.7302 10.6455 16.7302V16.1302C10.4341 16.1302 10.2604 15.9549 10.2604 15.7563H9.66045ZM4.17676 25.3776H17.103V24.7776H4.17676V25.3776ZM17.103 25.3776C18.2514 25.3776 19.1683 25.0844 19.7966 24.4593C20.4251 23.8339 20.716 22.925 20.716 21.7983H20.116C20.116 22.8279 19.851 23.5587 19.3734 24.0339C18.8955 24.5094 18.1558 24.7776 17.103 24.7776V25.3776ZM20.716 21.7983V10.5903H20.116V21.7983H20.716ZM20.716 10.5903C20.716 9.46363 20.4251 8.55478 19.7966 7.92942C19.1683 7.30432 18.2514 7.01103 17.103 7.01103V7.61104C18.1558 7.61104 18.8955 7.87927 19.3734 8.35476C19.851 8.82999 20.116 9.56079 20.116 10.5903H20.716ZM17.103 7.01103H13.9023V7.61104H17.103V7.01103ZM13.6023 7.31104V8.70361H14.2023V7.31104H13.6023ZM13.9023 9.00361H17.0806V8.40361H13.9023V9.00361ZM17.0806 9.00361C17.6455 9.00361 18.0449 9.15695 18.3036 9.41455C18.562 9.67186 18.7234 10.0765 18.7234 10.6689H19.3234C19.3234 9.9699 19.1311 9.39186 18.7269 8.98938C18.323 8.58719 17.751 8.40361 17.0806 8.40361V9.00361ZM18.7234 10.6689V21.7197H19.3234V10.6689H18.7234ZM18.7234 21.7197C18.7234 22.3184 18.5617 22.7224 18.304 22.9779C18.0459 23.2338 17.6468 23.3851 17.0806 23.3851V23.9851C17.7497 23.9851 18.322 23.805 18.7265 23.404C19.1315 23.0024 19.3234 22.4237 19.3234 21.7197H18.7234ZM17.0806 23.3851H4.21045V23.9851H17.0806V23.3851ZM4.21045 23.3851C3.62543 23.3851 3.22476 23.2328 2.96919 22.9783C2.71386 22.7241 2.55635 22.321 2.55635 21.7197H1.95635C1.95635 22.4212 2.14136 23.0008 2.54583 23.4035C2.95005 23.806 3.52643 23.9851 4.21045 23.9851V23.3851ZM2.55635 21.7197V10.6689H1.95635V21.7197H2.55635ZM2.55635 10.6689C2.55635 10.074 2.71354 9.6702 2.96964 9.4141C3.22576 9.15798 3.62672 9.00361 4.21045 9.00361V8.40361C3.52513 8.40361 2.94905 8.58616 2.54538 8.98983C2.14169 9.39352 1.95635 9.97243 1.95635 10.6689H2.55635ZM4.21045 9.00361H7.38867V8.40361H4.21045V9.00361ZM7.68867 8.70361V7.31104H7.08867V8.70361H7.68867ZM7.38867 7.01103H4.17676V7.61104H7.38867V7.01103ZM4.17676 7.01103C3.03439 7.01103 2.11773 7.30131 1.48799 7.92467C0.857707 8.54857 0.56377 9.45762 0.56377 10.5903H1.16377C1.16377 9.55556 1.43136 8.82497 1.91009 8.35109C2.38935 7.87667 3.12919 7.61104 4.17676 7.61104V7.01103ZM0.56377 10.5903V21.7983H1.16377V10.5903H0.56377ZM0.56377 21.7983C0.56377 22.931 0.857707 23.8401 1.48799 24.464C2.11773 25.0874 3.03439 25.3776 4.17676 25.3776V24.7776C3.12919 24.7776 2.38935 24.512 1.91009 24.0376C1.43136 23.5637 1.16377 22.8331 1.16377 21.7983H0.56377Z" fill="black"/>
</svg>
