<svg width="14" height="9" viewBox="0 0 14 9" fill="none" xmlns="http://www.w3.org/2000/svg">
<path d="M6.668 8.28906C6.83206 8.28906 6.98831 8.21875 7.09769 8.09375L13.0196 1.85938C13.1289 1.75781 13.1836 1.63281 13.1836 1.47656C13.1836 1.17188 12.9493 0.9375 12.6446 0.9375C12.5039 0.9375 12.3633 0.992188 12.2618 1.09375L6.67581 6.96875L1.08206 1.09375C0.988313 0.992188 0.847688 0.9375 0.69925 0.9375C0.394563 0.9375 0.160188 1.17188 0.160188 1.47656C0.160188 1.63281 0.2305 1.75781 0.332063 1.86719L6.25394 8.10156C6.37113 8.21875 6.51175 8.28906 6.668 8.28906Z" fill="black"/>
</svg>
