<svg width="19" height="16" viewBox="0 0 19 16" fill="none" xmlns="http://www.w3.org/2000/svg">
<path fill-rule="evenodd" clip-rule="evenodd" d="M14.426 15.0844C14.6675 15.2554 14.9787 15.2981 15.2562 15.1931C15.5337 15.0874 15.7377 14.8504 15.7992 14.5631C16.451 11.5001 18.032 3.74736 18.6252 0.961111C18.6702 0.751111 18.5952 0.532861 18.4302 0.392611C18.2652 0.252361 18.0365 0.211861 17.8325 0.287611C14.6877 1.45161 5.00299 5.08536 1.04449 6.55011C0.793244 6.64311 0.629744 6.88461 0.637994 7.14936C0.646994 7.41486 0.825494 7.64511 1.08274 7.72236C2.85799 8.25336 5.18824 8.99211 5.18824 8.99211C5.18824 8.99211 6.27724 12.2809 6.84499 13.9534C6.91624 14.1634 7.08049 14.3284 7.29724 14.3854C7.51324 14.4416 7.74424 14.3824 7.90549 14.2301C8.81749 13.3691 10.2275 12.0379 10.2275 12.0379C10.2275 12.0379 12.9065 14.0021 14.426 15.0844ZM6.16849 8.57661L7.42774 12.7301L7.70749 10.0999C7.70749 10.0999 12.5727 5.71161 15.3462 3.21036C15.4272 3.13686 15.4385 3.01386 15.371 2.92761C15.3042 2.84136 15.1812 2.82111 15.089 2.87961C11.8745 4.93236 6.16849 8.57661 6.16849 8.57661Z" fill="#1A1A1A"/>
</svg>
