<svg width="19" height="19" viewBox="0 0 19 19" fill="none" xmlns="http://www.w3.org/2000/svg">
<path fill-rule="evenodd" clip-rule="evenodd" d="M15.9531 3.377C14.2586 1.74836 12.0051 0.851058 9.60415 0.850098C4.65718 0.850098 0.630898 4.71506 0.629211 9.46568C0.628523 10.9843 1.04171 12.4666 1.8272 13.7733L0.553711 18.2381L5.31155 17.0399C6.6275 17.728 8.10209 18.0886 9.60058 18.0887H9.60433C14.5508 18.0887 18.5774 14.2233 18.5793 9.4727C18.5803 7.17032 17.6477 5.00558 15.9531 3.377ZM9.60427 16.6335H9.60121C8.26526 16.6337 6.95386 16.2889 5.80442 15.6353L5.53199 15.4801L2.70863 16.1911L3.46232 13.5484L3.28494 13.2775C2.53813 12.1372 2.14357 10.8194 2.14432 9.4661C2.14595 5.51762 5.49243 2.30522 9.60721 2.30522C11.5998 2.30588 13.4727 3.0518 14.8812 4.40522C16.2896 5.75864 17.0648 7.55816 17.064 9.47168C17.0622 13.4208 13.7159 16.6335 9.60427 16.6335ZM13.6961 11.2699C13.4719 11.1619 12.3693 10.6414 12.1638 10.5695C11.9582 10.4976 11.8087 10.4615 11.6592 10.6775C11.5097 10.8935 11.0799 11.378 10.9491 11.5217C10.8183 11.6654 10.6875 11.6833 10.4632 11.5757C10.239 11.4681 9.51634 11.2406 8.65978 10.5071C7.9931 9.9362 7.54304 9.23126 7.41223 9.01568C7.28141 8.8001 7.39829 8.6837 7.51054 8.5763C7.61141 8.47982 7.73479 8.32484 7.84691 8.19914C7.95903 8.07344 7.99641 7.98356 8.07116 7.83998C8.14591 7.6964 8.10866 7.57058 8.05241 7.46282C7.99616 7.35506 7.54785 6.29534 7.36098 5.86424C7.17892 5.44424 6.99404 5.50136 6.85642 5.49464C6.72573 5.48864 6.57611 5.48708 6.42661 5.48708C6.27711 5.48708 6.03411 5.54108 5.82861 5.75648C5.62311 5.97188 5.04355 6.49256 5.04355 7.5521C5.04355 8.61164 5.84711 9.63554 5.9593 9.77924C6.07149 9.92294 7.54054 12.0975 9.79052 13.03C10.3256 13.252 10.7433 13.3843 11.069 13.4835C11.6064 13.6474 12.0951 13.6243 12.4814 13.5688C12.9123 13.507 13.8082 13.048 13.9951 12.5452C14.182 12.0423 14.182 11.6112 14.1259 11.5214C14.0699 11.4316 13.9204 11.3778 13.6961 11.2699Z" fill="#1A1A1A"/>
</svg>
