<svg width="242" height="31" viewBox="0 0 242 31" fill="none" xmlns="http://www.w3.org/2000/svg">
<mask id="path-1-inside-1_4432_3059" fill="white">
<path d="M6.13223 21.8223C6.79076 25.1489 9.90494 26.4829 13.6054 26.4829C17.5735 26.4829 19.9272 24.826 19.9272 22.0644C19.9272 19.1457 17.4079 18.6337 13.0701 17.5674C6.82899 16.0294 1.99628 15.0416 1.99628 9.32307C1.99628 4.31404 6.25119 1.11914 12.8619 1.11914C18.3723 1.11914 22.8354 3.28802 23.7084 8.51584H18.6484C17.8476 6.05169 15.6235 5.02355 12.5327 5.02355C9.01912 5.02355 6.91184 6.48292 6.91184 8.92795C6.91184 11.6109 8.73022 11.7681 14.3914 13.1892C19.3919 14.4128 25.0106 15.5557 25.0106 21.5907C25.0106 27.9423 19.1009 30.3873 13.3165 30.3873C6.82475 30.3873 1.68826 27.6598 1 21.8223"/>
</mask>
<path d="M6.13223 21.8223C6.79076 25.1489 9.90494 26.4829 13.6054 26.4829C17.5735 26.4829 19.9272 24.826 19.9272 22.0644C19.9272 19.1457 17.4079 18.6337 13.0701 17.5674C6.82899 16.0294 1.99628 15.0416 1.99628 9.32307C1.99628 4.31404 6.25119 1.11914 12.8619 1.11914C18.3723 1.11914 22.8354 3.28802 23.7084 8.51584H18.6484C17.8476 6.05169 15.6235 5.02355 12.5327 5.02355C9.01912 5.02355 6.91184 6.48292 6.91184 8.92795C6.91184 11.6109 8.73022 11.7681 14.3914 13.1892C19.3919 14.4128 25.0106 15.5557 25.0106 21.5907C25.0106 27.9423 19.1009 30.3873 13.3165 30.3873C6.82475 30.3873 1.68826 27.6598 1 21.8223" fill="black"/>
<path d="M13.0701 17.5674L12.9505 18.0528L12.9507 18.0529L13.0701 17.5674ZM23.7084 8.51584V9.01584H24.2989L24.2016 8.43348L23.7084 8.51584ZM18.6484 8.51584L18.1729 8.67039L18.2852 9.01584H18.6484V8.51584ZM14.3914 13.1892L14.2697 13.6742L14.2726 13.6749L14.3914 13.1892ZM5.64175 21.9194C6.00146 23.7365 7.04169 25.0198 8.48173 25.8352C9.90528 26.6412 11.703 26.9829 13.6054 26.9829V25.9829C11.8074 25.9829 10.1977 25.6576 8.97445 24.965C7.76766 24.2817 6.92153 23.2346 6.62272 21.7252L5.64175 21.9194ZM13.6054 26.9829C15.6496 26.9829 17.3435 26.5575 18.5412 25.7188C19.7595 24.8656 20.4272 23.608 20.4272 22.0644H19.4272C19.4272 23.2825 18.9181 24.234 17.9676 24.8997C16.9963 25.5798 15.5294 25.9829 13.6054 25.9829V26.9829ZM20.4272 22.0644C20.4272 21.26 20.2526 20.5823 19.887 20.0109C19.5234 19.4427 18.9969 19.02 18.3609 18.6802C17.1187 18.0167 15.324 17.6066 13.1895 17.0818L12.9507 18.0529C15.154 18.5945 16.7878 18.9736 17.8897 19.5623C18.4258 19.8486 18.8002 20.1679 19.0446 20.5498C19.287 20.9287 19.4272 21.4095 19.4272 22.0644H20.4272ZM13.1897 17.0819C10.0348 16.3044 7.35454 15.6895 5.44376 14.5805C4.50308 14.0345 3.77469 13.3815 3.27805 12.5509C2.78213 11.7215 2.49628 10.68 2.49628 9.32307H1.49628C1.49628 10.8254 1.81452 12.0518 2.41977 13.0641C3.0243 14.0751 3.89415 14.8373 4.94179 15.4454C7.00764 16.6444 9.86427 17.2923 12.9505 18.0528L13.1897 17.0819ZM2.49628 9.32307C2.49628 6.97655 3.48547 5.07299 5.25106 3.74198C7.0304 2.4006 9.63067 1.61914 12.8619 1.61914V0.619141C9.48244 0.619141 6.64989 1.43513 4.64909 2.94346C2.63455 4.46215 1.49628 6.66055 1.49628 9.32307H2.49628ZM12.8619 1.61914C15.5589 1.61914 17.9505 2.15099 19.7592 3.28109C21.5516 4.40098 22.8024 6.12584 23.2153 8.59821L24.2016 8.43348C23.7414 5.67802 22.3241 3.70453 20.2891 2.43302C18.2704 1.17173 15.6753 0.619141 12.8619 0.619141V1.61914ZM23.7084 8.01584H18.6484V9.01584H23.7084V8.01584ZM19.1239 8.3613C18.6837 7.00662 17.8421 6.03185 16.6875 5.40606C15.5469 4.78779 14.1272 4.52355 12.5327 4.52355V5.52355C14.0289 5.52355 15.2667 5.77337 16.211 6.28522C17.1414 6.78954 17.8123 7.56092 18.1729 8.67039L19.1239 8.3613ZM12.5327 4.52355C10.7162 4.52355 9.19833 4.89938 8.11958 5.6481C7.01994 6.41132 6.41184 7.54037 6.41184 8.92795H7.41184C7.41184 7.8705 7.85738 7.04735 8.68976 6.46962C9.54304 5.87739 10.8356 5.52355 12.5327 5.52355V4.52355ZM6.41184 8.92795C6.41184 9.65234 6.53418 10.2689 6.86043 10.7908C7.18739 11.3139 7.68237 11.6832 8.31407 11.9834C8.93979 12.2807 9.73612 12.527 10.7062 12.7844C11.676 13.0418 12.8658 13.3218 14.2697 13.6742L14.5131 12.7043C13.0864 12.3461 11.9259 12.0735 10.9627 11.8179C9.99954 11.5623 9.2798 11.3351 8.74328 11.0802C8.21274 10.8281 7.8993 10.5662 7.7084 10.2608C7.5168 9.95425 7.41184 9.54504 7.41184 8.92795H6.41184ZM14.2726 13.6749C16.8033 14.2942 19.3714 14.8697 21.3228 16.0167C22.2869 16.5834 23.0779 17.2782 23.6297 18.1676C24.1796 19.054 24.5106 20.1634 24.5106 21.5907H25.5106C25.5106 20.0005 25.1393 18.7039 24.4794 17.6404C23.8215 16.5799 22.8952 15.781 21.8296 15.1546C19.7215 13.9155 16.98 13.3079 14.5102 12.7036L14.2726 13.6749ZM24.5106 21.5907C24.5106 24.5809 23.1332 26.6278 21.0636 27.9494C18.9695 29.2867 16.1497 29.8873 13.3165 29.8873V30.8873C16.2677 30.8873 19.295 30.2654 21.6018 28.7923C23.9331 27.3035 25.5106 24.9521 25.5106 21.5907H24.5106ZM13.3165 29.8873C10.1333 29.8873 7.32996 29.2176 5.25356 27.8741C3.19308 26.5409 1.82272 24.53 1.49656 21.7637L0.50344 21.8808C0.865545 24.952 2.40755 27.2237 4.71033 28.7136C6.99717 30.1933 10.008 30.8873 13.3165 30.8873V29.8873Z" fill="black" mask="url(#path-1-inside-1_4432_3059)"/>
<path d="M6.13223 21.8222C6.79076 25.1488 9.90494 26.4828 13.6054 26.4828C17.5735 26.4828 19.9272 24.8259 19.9272 22.0643C19.9272 19.1456 17.4079 18.6336 13.0701 17.5672C6.82899 16.0293 1.99628 15.0415 1.99628 9.32296C1.99628 4.31394 6.25119 1.11904 12.8619 1.11904C18.3723 1.11904 22.8354 3.28791 23.7084 8.51574H18.6484C17.8476 6.05159 15.6235 5.02344 12.5327 5.02344C9.01912 5.02344 6.91184 6.48281 6.91184 8.92785C6.91184 11.6108 8.73021 11.768 14.3914 13.1891C19.3919 14.4127 25.0106 15.5556 25.0106 21.5906C25.0106 27.9422 19.1009 30.3872 13.3165 30.3872C6.82475 30.3872 1.68826 27.6596 1 21.8222H6.13223Z" fill="black" stroke="black" stroke-width="0.5" stroke-miterlimit="10"/>
<path d="M32.8921 15.6341C32.8921 18.9507 33.7711 21.6757 35.3788 23.576C36.9905 25.4809 39.3147 26.533 42.149 26.533C44.9053 26.533 47.1881 25.4585 48.7774 23.55C50.3629 21.6461 51.2424 18.9325 51.2424 15.6744C51.2424 12.4163 50.3629 9.72086 48.766 7.83549C47.1653 5.94571 44.8623 4.89232 42.0683 4.89232C39.2934 4.89232 36.9904 5.9566 35.385 7.84525C33.783 9.72988 32.8921 12.4149 32.8921 15.6341ZM55.9489 15.7148C55.9489 20.0375 54.5319 23.6501 52.0984 26.1804C49.6656 28.7099 46.2003 30.1754 42.0683 30.1754C37.9138 30.1754 34.4481 28.7097 32.0206 26.1806C29.5922 23.6505 28.1855 20.0381 28.1855 15.7148C28.1855 11.6434 29.4705 8.02839 31.849 5.43394C34.2249 2.84232 37.7091 1.25 42.149 1.25C46.2394 1.25 49.6847 2.72529 52.108 5.26088C54.532 7.79734 55.9489 11.4114 55.9489 15.7148Z" fill="black" stroke="black" stroke-width="0.5"/>
<path d="M33.1421 15.634C33.1421 22.1831 36.6132 26.283 42.149 26.283C47.5213 26.283 50.9924 22.1045 50.9924 15.6744C50.9924 9.24421 47.5213 5.14225 42.0683 5.14225C36.6557 5.14225 33.1421 9.28457 33.1421 15.634ZM56.1989 15.7147C56.1989 24.471 50.4549 30.4253 42.0683 30.4253C33.6371 30.4253 27.9355 24.471 27.9355 15.7147C27.9355 7.46832 33.1421 0.999926 42.149 0.999926C50.4549 0.999926 56.1989 6.99674 56.1989 15.7147Z" fill="black" stroke="black" stroke-width="0.5" stroke-miterlimit="10"/>
<mask id="path-6-inside-2_4432_3059" fill="white">
<path d="M65.9909 25.614H72.0642C78.966 25.614 80.8672 21.2359 80.8672 15.477C80.8672 9.71812 78.18 5.85195 71.7349 5.85195H65.9909V25.614ZM72.0642 1.67139C75.701 1.67139 78.8831 2.1451 81.6935 4.55189C84.5018 6.95657 86.0313 10.7441 86.0313 15.2391C86.0313 19.4218 85.0817 23.6023 81.8996 26.64C79.4609 28.9661 76.9819 29.7563 72.3552 29.7563H60.8672V1.67139"/>
</mask>
<path d="M65.9909 25.614H72.0642C78.966 25.614 80.8672 21.2359 80.8672 15.477C80.8672 9.71812 78.18 5.85195 71.7349 5.85195H65.9909V25.614ZM72.0642 1.67139C75.701 1.67139 78.8831 2.1451 81.6935 4.55189C84.5018 6.95657 86.0313 10.7441 86.0313 15.2391C86.0313 19.4218 85.0817 23.6023 81.8996 26.64C79.4609 28.9661 76.9819 29.7563 72.3552 29.7563H60.8672V1.67139" fill="black"/>
<path d="M65.9909 25.614H65.4909V26.114H65.9909V25.614ZM65.9909 5.85195V5.35195H65.4909V5.85195H65.9909ZM81.6935 4.55189L81.3683 4.93166L81.3683 4.93169L81.6935 4.55189ZM81.8996 26.64L82.2447 27.0018L82.2448 27.0017L81.8996 26.64ZM60.8672 29.7563H60.3672V30.2563H60.8672V29.7563ZM65.9909 26.114H72.0642V25.114H65.9909V26.114ZM72.0642 26.114C75.629 26.114 78.0002 24.9763 79.4563 23.0019C80.8892 21.0587 81.3672 18.3938 81.3672 15.477H80.3672C80.3672 18.3191 79.8945 20.7227 78.6514 22.4083C77.4314 24.0627 75.4011 25.114 72.0642 25.114V26.114ZM81.3672 15.477C81.3672 12.5287 80.6802 9.98589 79.094 8.17541C77.4975 6.35304 75.0603 5.35195 71.7349 5.35195V6.35195C74.8547 6.35195 76.9836 7.28394 78.3419 8.83438C79.7106 10.3967 80.3672 12.6664 80.3672 15.477H81.3672ZM71.7349 5.35195H65.9909V6.35195H71.7349V5.35195ZM65.4909 5.85195V25.614H66.4909V5.85195H65.4909ZM72.0642 2.17139C75.6605 2.17139 78.6943 2.6417 81.3683 4.93166L82.0187 4.17212C79.0719 1.6485 75.7414 1.17139 72.0642 1.17139V2.17139ZM81.3683 4.93169C84.0412 7.22041 85.5313 10.8546 85.5313 15.2391H86.5313C86.5313 10.6337 84.9624 6.69272 82.0187 4.1721L81.3683 4.93169ZM85.5313 15.2391C85.5313 19.3564 84.5958 23.3749 81.5543 26.2784L82.2448 27.0017C85.5676 23.8298 86.5313 19.4872 86.5313 15.2391H85.5313ZM81.5545 26.2782C80.3808 27.3977 79.2146 28.1332 77.7934 28.5949C76.3617 29.0601 74.6446 29.2563 72.3552 29.2563V30.2563C74.6925 30.2563 76.5282 30.0575 78.1024 29.546C79.687 29.0311 80.9797 28.2084 82.2447 27.0018L81.5545 26.2782ZM72.3552 29.2563H60.8672V30.2563H72.3552V29.2563ZM61.3672 29.7563V1.67139H60.3672V29.7563H61.3672Z" fill="black" mask="url(#path-6-inside-2_4432_3059)"/>
<path d="M65.9909 25.614H72.0642C78.966 25.614 80.8672 21.2359 80.8672 15.477C80.8672 9.71812 78.18 5.85195 71.7349 5.85195H65.9909V25.614ZM72.0642 1.67139C75.701 1.67139 78.8831 2.14511 81.6935 4.5519C84.5018 6.95657 86.0313 10.7441 86.0313 15.2391C86.0313 19.4218 85.0817 23.6023 81.8996 26.64C79.4609 28.9661 76.9819 29.7563 72.3552 29.7563H60.8672V1.67139H72.0642Z" fill="black" stroke="black" stroke-width="0.5" stroke-miterlimit="10"/>
<mask id="path-9-inside-3_4432_3059" fill="white">
<path d="M101.4 6.75884L96.8139 18.5931H105.78L101.4 6.75884ZM115.49 29.7562H109.952L107.144 22.3021H95.4904L92.5993 29.7562H87.2695L98.6322 1.63086H104.128"/>
</mask>
<path d="M101.4 6.75884L96.8139 18.5931H105.78L101.4 6.75884ZM115.49 29.7562H109.952L107.144 22.3021H95.4904L92.5993 29.7562H87.2695L98.6322 1.63086H104.128" fill="black"/>
<path d="M101.4 6.75884L101.869 6.58529L101.411 5.34744L100.934 6.57817L101.4 6.75884ZM96.8139 18.5931L96.3477 18.4125L96.0839 19.0931H96.8139V18.5931ZM105.78 18.5931V19.0931H106.499L106.249 18.4196L105.78 18.5931ZM109.952 29.7562L109.485 29.9325L109.607 30.2562H109.952V29.7562ZM107.144 22.3021L107.612 22.1258L107.49 21.8021H107.144V22.3021ZM95.4904 22.3021V21.8021H95.1481L95.0243 22.1213L95.4904 22.3021ZM92.5993 29.7562V30.2562H92.9417L93.0655 29.937L92.5993 29.7562ZM87.2695 29.7562L86.8059 29.5689L86.5283 30.2562H87.2695V29.7562ZM98.6322 1.63086V1.13086H98.295L98.1686 1.44357L98.6322 1.63086ZM100.934 6.57817L96.3477 18.4125L97.2801 18.7738L101.866 6.93952L100.934 6.57817ZM96.8139 19.0931H105.78V18.0931H96.8139V19.0931ZM106.249 18.4196L101.869 6.58529L100.931 6.9324L105.311 18.7667L106.249 18.4196ZM115.49 29.2562H109.952V30.2562H115.49V29.2562ZM110.42 29.5799L107.612 22.1258L106.676 22.4784L109.485 29.9325L110.42 29.5799ZM107.144 21.8021H95.4904V22.8021H107.144V21.8021ZM95.0243 22.1213L92.1332 29.5754L93.0655 29.937L95.9566 22.4829L95.0243 22.1213ZM92.5993 29.2562H87.2695V30.2562H92.5993V29.2562ZM87.7331 29.9435L99.0958 1.81815L98.1686 1.44357L86.8059 29.5689L87.7331 29.9435ZM98.6322 2.13086H104.128V1.13086H98.6322V2.13086Z" fill="black" mask="url(#path-9-inside-3_4432_3059)"/>
<path d="M101.4 6.75902L96.8139 18.5933H105.78L101.4 6.75902ZM115.49 29.7563H109.952L107.144 22.3023H95.4904L92.5993 29.7563H87.2695L98.6322 1.63103H104.128L115.49 29.7563Z" fill="black" stroke="black" stroke-width="0.5" stroke-miterlimit="10"/>
<mask id="path-12-inside-4_4432_3059" fill="white">
<path d="M148.829 29.7563H143.911V8.10155L135.73 29.7563H131.516L123.127 8.10155V29.7563H118.252V1.67139H125.483L133.706 23.6427L141.638 1.67139H148.829"/>
</mask>
<path d="M148.829 29.7563H143.911V8.10155L135.73 29.7563H131.516L123.127 8.10155V29.7563H118.252V1.67139H125.483L133.706 23.6427L141.638 1.67139H148.829" fill="black"/>
<path d="M143.911 29.7563H143.411V30.2563H143.911V29.7563ZM143.911 8.10155H144.411L143.443 7.92485L143.911 8.10155ZM135.73 29.7563V30.2563H136.076L136.198 29.933L135.73 29.7563ZM131.516 29.7563L131.05 29.937L131.173 30.2563H131.516V29.7563ZM123.127 8.10155L123.593 7.92093L122.627 8.10155H123.127ZM123.127 29.7563V30.2563H123.627V29.7563H123.127ZM118.252 29.7563H117.752V30.2563H118.252V29.7563ZM118.252 1.67139V1.17139H117.752V1.67139H118.252ZM125.483 1.67139L125.951 1.49613L125.83 1.17139H125.483V1.67139ZM133.706 23.6427L133.238 23.818L133.714 25.0917L134.176 23.8125L133.706 23.6427ZM141.638 1.67139V1.17139H141.287L141.168 1.5016L141.638 1.67139ZM148.829 29.2563H143.911V30.2563H148.829V29.2563ZM144.411 29.7563V8.10155H143.411V29.7563H144.411ZM143.443 7.92485L135.263 29.5796L136.198 29.933L144.379 8.27825L143.443 7.92485ZM135.73 29.2563H131.516V30.2563H135.73V29.2563ZM131.982 29.5757L123.593 7.92093L122.661 8.28216L131.05 29.937L131.982 29.5757ZM122.627 8.10155V29.7563H123.627V8.10155H122.627ZM123.127 29.2563H118.252V30.2563H123.127V29.2563ZM118.752 29.7563V1.67139H117.752V29.7563H118.752ZM118.252 2.17139H125.483V1.17139H118.252V2.17139ZM125.015 1.84665L133.238 23.818L134.174 23.4674L125.951 1.49613L125.015 1.84665ZM134.176 23.8125L142.108 1.84117L141.168 1.5016L133.236 23.4729L134.176 23.8125ZM141.638 2.17139H148.829V1.17139H141.638V2.17139Z" fill="black" mask="url(#path-12-inside-4_4432_3059)"/>
<path d="M148.829 29.7563H143.911V8.10155L135.73 29.7563H131.516L123.127 8.10155V29.7563H118.252V1.67139H125.483L133.706 23.6427L141.638 1.67139H148.829V29.7563Z" fill="black" stroke="black" stroke-width="0.5" stroke-miterlimit="10"/>
<path d="M158.408 15.6341C158.408 18.9506 159.286 21.6756 160.894 23.5759C162.505 25.481 164.829 26.533 167.665 26.533C170.42 26.533 172.702 25.4585 174.291 23.55C175.876 21.6461 176.756 18.9325 176.756 15.6744C176.756 12.4163 175.876 9.72086 174.279 7.83549C172.679 5.94571 170.376 4.89232 167.582 4.89232C164.807 4.89232 162.504 5.95661 160.9 7.84528C159.298 9.72992 158.408 12.415 158.408 15.6341ZM181.462 15.7148C181.462 20.0376 180.046 23.6501 177.613 26.1804C175.18 28.7099 171.715 30.1754 167.582 30.1754C163.428 30.1754 159.963 28.7097 157.536 26.1806C155.108 23.6505 153.701 20.0381 153.701 15.7148C153.701 11.6434 154.986 8.02839 157.365 5.43394C159.741 2.84232 163.225 1.25 167.665 1.25C171.755 1.25 175.2 2.72528 177.623 5.26086C180.046 7.79731 181.462 11.4114 181.462 15.7148Z" fill="black" stroke="black" stroke-width="0.5"/>
<path d="M158.658 15.634C158.658 22.1831 162.127 26.283 167.665 26.283C173.035 26.283 176.506 22.1045 176.506 15.6744C176.506 9.24421 173.035 5.14225 167.582 5.14225C162.169 5.14225 158.658 9.28457 158.658 15.634ZM181.712 15.7147C181.712 24.471 175.971 30.4253 167.582 30.4253C159.153 30.4253 153.451 24.471 153.451 15.7147C153.451 7.46832 158.658 0.999926 167.665 0.999926C175.971 0.999926 181.712 6.99674 181.712 15.7147Z" fill="black" stroke="black" stroke-width="0.5" stroke-miterlimit="10"/>
<mask id="path-17-inside-5_4432_3059" fill="white">
<path d="M191.505 25.614H197.578C204.48 25.614 206.381 21.2359 206.381 15.477C206.381 9.71812 203.694 5.85195 197.249 5.85195H191.505V25.614ZM197.578 1.67139C201.215 1.67139 204.397 2.1451 207.207 4.55189C210.015 6.95657 211.545 10.7441 211.545 15.2391C211.545 19.4218 210.595 23.6023 207.413 26.64C204.977 28.9661 202.496 29.7563 197.869 29.7563H186.381V1.67139"/>
</mask>
<path d="M191.505 25.614H197.578C204.48 25.614 206.381 21.2359 206.381 15.477C206.381 9.71812 203.694 5.85195 197.249 5.85195H191.505V25.614ZM197.578 1.67139C201.215 1.67139 204.397 2.1451 207.207 4.55189C210.015 6.95657 211.545 10.7441 211.545 15.2391C211.545 19.4218 210.595 23.6023 207.413 26.64C204.977 28.9661 202.496 29.7563 197.869 29.7563H186.381V1.67139" fill="black"/>
<path d="M191.505 25.614H191.005V26.114H191.505V25.614ZM191.505 5.85195V5.35195H191.005V5.85195H191.505ZM207.207 4.55189L206.882 4.93166L206.882 4.93169L207.207 4.55189ZM207.413 26.64L207.068 26.2784L207.068 26.2784L207.413 26.64ZM186.381 29.7563H185.881V30.2563H186.381V29.7563ZM191.505 26.114H197.578V25.114H191.505V26.114ZM197.578 26.114C201.143 26.114 203.514 24.9763 204.97 23.0019C206.403 21.0587 206.881 18.3938 206.881 15.477H205.881C205.881 18.3191 205.408 20.7227 204.165 22.4083C202.945 24.0627 200.915 25.114 197.578 25.114V26.114ZM206.881 15.477C206.881 12.5287 206.194 9.98589 204.608 8.17541C203.011 6.35304 200.574 5.35195 197.249 5.35195V6.35195C200.368 6.35195 202.497 7.28394 203.856 8.83438C205.224 10.3967 205.881 12.6664 205.881 15.477H206.881ZM197.249 5.35195H191.505V6.35195H197.249V5.35195ZM191.005 5.85195V25.614H192.005V5.85195H191.005ZM197.578 2.17139C201.174 2.17139 204.208 2.6417 206.882 4.93166L207.532 4.17212C204.586 1.6485 201.255 1.17139 197.578 1.17139V2.17139ZM206.882 4.93169C209.555 7.22041 211.045 10.8546 211.045 15.2391H212.045C212.045 10.6337 210.476 6.69272 207.532 4.1721L206.882 4.93169ZM211.045 15.2391C211.045 19.3564 210.11 23.3749 207.068 26.2784L207.758 27.0017C211.081 23.8298 212.045 19.4872 212.045 15.2391H211.045ZM207.068 26.2784C205.895 27.3977 204.729 28.1332 203.308 28.5949C201.876 29.0601 200.158 29.2563 197.869 29.2563V30.2563C200.206 30.2563 202.042 30.0575 203.617 29.546C205.202 29.0312 206.494 28.2084 207.759 27.0017L207.068 26.2784ZM197.869 29.2563H186.381V30.2563H197.869V29.2563ZM186.881 29.7563V1.67139H185.881V29.7563H186.881Z" fill="black" mask="url(#path-17-inside-5_4432_3059)"/>
<path d="M191.505 25.614H197.578C204.48 25.614 206.381 21.2359 206.381 15.477C206.381 9.71812 203.694 5.85195 197.249 5.85195H191.505V25.614ZM197.578 1.67139C201.215 1.67139 204.397 2.14511 207.207 4.5519C210.015 6.95657 211.545 10.7441 211.545 15.2391C211.545 19.4218 210.595 23.6023 207.413 26.64C204.977 28.9661 202.496 29.7563 197.869 29.7563H186.381V1.67139H197.578Z" fill="black" stroke="black" stroke-width="0.5" stroke-miterlimit="10"/>
<mask id="path-20-inside-6_4432_3059" fill="white">
<path d="M226.91 6.75884L222.324 18.5931H231.29L226.91 6.75884ZM241 29.7562H235.462L232.654 22.3021H221.002L218.109 29.7562H212.779L224.142 1.63086H229.637"/>
</mask>
<path d="M226.91 6.75884L222.324 18.5931H231.29L226.91 6.75884ZM241 29.7562H235.462L232.654 22.3021H221.002L218.109 29.7562H212.779L224.142 1.63086H229.637" fill="black"/>
<path d="M226.91 6.75884L227.379 6.58529L226.921 5.34744L226.444 6.57817L226.91 6.75884ZM222.324 18.5931L221.857 18.4125L221.594 19.0931H222.324V18.5931ZM231.29 18.5931V19.0931H232.008L231.759 18.4196L231.29 18.5931ZM235.462 29.7562L234.994 29.9325L235.116 30.2562H235.462V29.7562ZM232.654 22.3021L233.122 22.1258L233 21.8021H232.654V22.3021ZM221.002 22.3021V21.8021H220.66L220.536 22.1212L221.002 22.3021ZM218.109 29.7562V30.2562H218.451L218.575 29.9371L218.109 29.7562ZM212.779 29.7562L212.316 29.5689L212.038 30.2562H212.779V29.7562ZM224.142 1.63086V1.13086H223.805L223.678 1.44357L224.142 1.63086ZM226.444 6.57817L221.857 18.4125L222.79 18.7738L227.376 6.93952L226.444 6.57817ZM222.324 19.0931H231.29V18.0931H222.324V19.0931ZM231.759 18.4196L227.379 6.58529L226.441 6.9324L230.821 18.7667L231.759 18.4196ZM241 29.2562H235.462V30.2562H241V29.2562ZM235.93 29.5799L233.122 22.1258L232.186 22.4784L234.994 29.9325L235.93 29.5799ZM232.654 21.8021H221.002V22.8021H232.654V21.8021ZM220.536 22.1212L217.643 29.5753L218.575 29.9371L221.468 22.483L220.536 22.1212ZM218.109 29.2562H212.779V30.2562H218.109V29.2562ZM213.243 29.9435L224.606 1.81815L223.678 1.44357L212.316 29.5689L213.243 29.9435ZM224.142 2.13086H229.637V1.13086H224.142V2.13086Z" fill="black" mask="url(#path-20-inside-6_4432_3059)"/>
<path d="M226.91 6.75902L222.324 18.5933H231.29L226.91 6.75902ZM241 29.7563H235.462L232.654 22.3023H221.002L218.109 29.7563H212.779L224.142 1.63103H229.637L241 29.7563Z" fill="black" stroke="black" stroke-width="0.5" stroke-miterlimit="10"/>
</svg>
