<svg width="14" height="15" viewBox="0 0 14 15" fill="none" xmlns="http://www.w3.org/2000/svg">
<path d="M2.5 0V0.625H0V14.375H13.75V0.625H11.25V0H10V0.625H3.75V0H2.5ZM1.25 1.875H2.5V2.5H3.75V1.875H10V2.5H11.25V1.875H12.5V3.125H1.25V1.875ZM1.25 4.375H12.5V13.125H1.25V4.375ZM5 5.625V6.875H6.25V5.625H5ZM7.5 5.625V6.875H8.75V5.625H7.5ZM10 5.625V6.875H11.25V5.625H10ZM2.5 8.125V9.375H3.75V8.125H2.5ZM5 8.125V9.375H6.25V8.125H5ZM7.5 8.125V9.375H8.75V8.125H7.5ZM10 8.125V9.375H11.25V8.125H10ZM2.5 10.625V11.875H3.75V10.625H2.5ZM5 10.625V11.875H6.25V10.625H5ZM7.5 10.625V11.875H8.75V10.625H7.5Z" fill="#090909"/>
</svg>
