<svg width="319" height="39" viewBox="0 0 319 39" fill="none" xmlns="http://www.w3.org/2000/svg">
<path d="M6.82161 27.5997C7.6969 32.0087 11.8362 33.7768 16.7547 33.7768C22.0291 33.7768 25.1575 31.5807 25.1575 27.9206C25.1575 24.0522 21.8088 23.3737 16.0432 21.9603C7.74773 19.9219 1.32423 18.6127 1.32423 11.0335C1.32423 4.39461 6.97973 0.160156 15.7665 0.160156C23.0907 0.160156 29.0229 3.03474 30.1834 9.9636H23.4578C22.3933 6.69766 19.4371 5.33498 15.3289 5.33498C10.6588 5.33498 7.85784 7.2692 7.85784 10.5098C7.85784 14.0657 10.2748 14.2741 17.7994 16.1576C24.446 17.7793 31.9142 19.294 31.9142 27.2928C31.9142 35.711 24.0592 38.9516 16.3707 38.9516C7.74208 38.9516 0.914819 35.3366 0 27.5997" fill="white"/>
<path d="M6.82161 27.5992C7.6969 32.0082 11.8362 33.7763 16.7547 33.7763C22.0291 33.7763 25.1575 31.5803 25.1575 27.9202C25.1575 24.0517 21.8088 23.3732 16.0432 21.9598C7.74773 19.9214 1.32423 18.6123 1.32423 11.033C1.32423 4.39416 6.97973 0.159702 15.7665 0.159702C23.0907 0.159702 29.0229 3.03429 30.1834 9.96315H23.4578C22.3933 6.69721 19.4371 5.33453 15.3289 5.33453C10.6588 5.33453 7.85784 7.26875 7.85784 10.5093C7.85784 14.0653 10.2748 14.2736 17.7994 16.1572C24.446 17.7789 31.9142 19.2936 31.9142 27.2923C31.9142 35.7106 24.0592 38.9512 16.3707 38.9512C7.74208 38.9512 0.914819 35.3361 0 27.5992H6.82161Z" fill="white"/>
<path d="M42.7212 19.3957C42.7212 28.0758 47.3348 33.5097 54.6929 33.5097C61.8336 33.5097 66.4472 27.9716 66.4472 19.4492C66.4472 10.9268 61.8336 5.49015 54.5856 5.49015C47.3913 5.49015 42.7212 10.9803 42.7212 19.3957ZM73.3677 19.5027C73.3677 31.1081 65.7329 38.9998 54.5856 38.9998C43.3791 38.9998 35.8008 31.1081 35.8008 19.5027C35.8008 8.57309 42.7212 0 54.6929 0C65.7329 0 73.3677 7.94805 73.3677 19.5027Z" fill="white"/>
<path d="M42.7212 19.3959C42.7212 28.076 47.3348 33.5098 54.6929 33.5098C61.8336 33.5098 66.4472 27.9718 66.4472 19.4494C66.4472 10.927 61.8336 5.49034 54.5856 5.49034C47.3913 5.49034 42.7212 10.9805 42.7212 19.3959ZM73.3677 19.5029C73.3677 31.1083 65.7329 39 54.5856 39C43.3791 39 35.8008 31.1083 35.8008 19.5029C35.8008 8.57327 42.7212 0.000179291 54.6929 0.000179291C65.7329 0.000179291 73.3677 7.94824 73.3677 19.5029Z" fill="white"/>
<path d="M86.3845 32.6237H94.457C103.631 32.6237 106.158 26.821 106.158 19.1883C106.158 11.5556 102.586 6.43146 94.0193 6.43146H86.3845V32.6237ZM94.457 0.890625C99.2908 0.890625 103.52 1.51847 107.256 4.70839C110.989 7.8955 113.022 12.9155 113.022 18.873C113.022 24.4166 111.759 29.9575 107.53 33.9836C104.288 37.0665 100.993 38.1139 94.8438 38.1139H79.5742V0.890625" fill="white"/>
<path d="M86.3845 32.6231H94.457C103.631 32.6231 106.158 26.8205 106.158 19.1877C106.158 11.555 102.586 6.43086 94.0193 6.43086H86.3845V32.6231ZM94.457 0.89003C99.2908 0.89003 103.52 1.51788 107.256 4.7078C110.989 7.89491 113.022 12.9149 113.022 18.8724C113.022 24.416 111.759 29.9569 107.53 33.983C104.288 37.0659 100.993 38.1133 94.8438 38.1133H79.5742V0.89003H94.457Z" fill="white"/>
<path d="M133.446 7.63247L127.35 23.3174H139.268L133.446 7.63247ZM152.174 38.1127H144.813L141.081 28.2332H125.591L121.748 38.1127H114.664L129.767 0.835938H137.071" fill="white"/>
<path d="M133.446 7.63305L127.35 23.318H139.268L133.446 7.63305ZM152.174 38.1133H144.813L141.081 28.2338H125.591L121.748 38.1133H114.664L129.767 0.836517H137.071L152.174 38.1133Z" fill="white"/>
<path d="M196.493 38.1139H189.957V9.41303L179.083 38.1139H173.482L162.332 9.41303V38.1139H155.852V0.890625H165.463L176.393 30.011L186.936 0.890625H196.493" fill="white"/>
<path d="M196.493 38.1133H189.957V9.41244L179.083 38.1133H173.482L162.332 9.41244V38.1133H155.852V0.89003H165.463L176.393 30.0104L186.936 0.89003H196.493V38.1133Z" fill="white"/>
<path d="M209.553 19.3957C209.553 28.0758 214.164 33.5097 221.525 33.5097C228.663 33.5097 233.276 27.9716 233.276 19.4492C233.276 10.9268 228.663 5.49015 221.415 5.49015C214.221 5.49015 209.553 10.9803 209.553 19.3957ZM240.197 19.5027C240.197 31.1081 232.565 38.9998 221.415 38.9998C210.211 38.9998 202.633 31.1081 202.633 19.5027C202.633 8.57309 209.553 0 221.525 0C232.565 0 240.197 7.94805 240.197 19.5027Z" fill="white"/>
<path d="M209.553 19.3959C209.553 28.076 214.164 33.5098 221.525 33.5098C228.663 33.5098 233.276 27.9718 233.276 19.4494C233.276 10.927 228.663 5.49034 221.415 5.49034C214.221 5.49034 209.553 10.9805 209.553 19.3959ZM240.197 19.5029C240.197 31.1083 232.565 39 221.415 39C210.211 39 202.633 31.1083 202.633 19.5029C202.633 8.57327 209.553 0.000179291 221.525 0.000179291C232.565 0.000179291 240.197 7.94824 240.197 19.5029Z" fill="white"/>
<path d="M253.213 32.6237H261.285C270.459 32.6237 272.986 26.821 272.986 19.1883C272.986 11.5556 269.414 6.43146 260.847 6.43146H253.213V32.6237ZM261.285 0.890625C266.119 0.890625 270.349 1.51847 274.084 4.70839C277.817 7.8955 279.85 12.9155 279.85 18.873C279.85 24.4166 278.588 29.9575 274.358 33.9836C271.119 37.0665 267.821 38.1139 261.672 38.1139H246.402V0.890625" fill="white"/>
<path d="M253.213 32.6231H261.285C270.459 32.6231 272.986 26.8205 272.986 19.1877C272.986 11.555 269.414 6.43086 260.847 6.43086H253.213V32.6231ZM261.285 0.89003C266.119 0.89003 270.349 1.51788 274.084 4.7078C277.817 7.89491 279.85 12.9149 279.85 18.8724C279.85 24.416 278.588 29.9569 274.358 33.983C271.119 37.0659 267.821 38.1133 261.672 38.1133H246.402V0.89003H261.285Z" fill="white"/>
<path d="M300.272 7.63247L294.176 23.3174H306.094L300.272 7.63247ZM319.001 38.1127H311.64L307.907 28.2332H292.42L288.574 38.1127H281.49L296.593 0.835938H303.898" fill="white"/>
<path d="M300.272 7.63305L294.176 23.318H306.094L300.272 7.63305ZM319.001 38.1133H311.64L307.907 28.2338H292.42L288.574 38.1133H281.49L296.593 0.836517H303.898L319.001 38.1133Z" fill="white"/>
</svg>
