<svg width="279" height="36" viewBox="0 0 279 36" fill="none" xmlns="http://www.w3.org/2000/svg">
<mask id="path-1-inside-1_3340_2178" fill="white">
<path d="M6.92344 25.0325C7.68348 28.8719 11.2778 30.4116 15.5487 30.4116C20.1286 30.4116 22.8451 28.4993 22.8451 25.312C22.8451 21.9433 19.9373 21.3524 14.9309 20.1216C7.72761 18.3466 2.14987 17.2065 2.14987 10.6064C2.14987 4.82513 7.06074 1.1377 14.6906 1.1377C21.0504 1.1377 26.2016 3.64094 27.2092 9.6747H21.3692C20.4449 6.83067 17.8779 5.64402 14.3106 5.64402C10.2554 5.64402 7.82323 7.32837 7.82323 10.1503C7.82323 13.2469 9.92193 13.4283 16.4559 15.0686C22.2273 16.4808 28.7122 17.7998 28.7122 24.7652C28.7122 32.096 21.8914 34.918 15.2153 34.918C7.72271 34.918 1.79437 31.7699 1 25.0325"/>
</mask>
<path d="M6.92344 25.0325C7.68348 28.8719 11.2778 30.4116 15.5487 30.4116C20.1286 30.4116 22.8451 28.4993 22.8451 25.312C22.8451 21.9433 19.9373 21.3524 14.9309 20.1216C7.72761 18.3466 2.14987 17.2065 2.14987 10.6064C2.14987 4.82513 7.06074 1.1377 14.6906 1.1377C21.0504 1.1377 26.2016 3.64094 27.2092 9.6747H21.3692C20.4449 6.83067 17.8779 5.64402 14.3106 5.64402C10.2554 5.64402 7.82323 7.32837 7.82323 10.1503C7.82323 13.2469 9.92193 13.4283 16.4559 15.0686C22.2273 16.4808 28.7122 17.7998 28.7122 24.7652C28.7122 32.096 21.8914 34.918 15.2153 34.918C7.72271 34.918 1.79437 31.7699 1 25.0325" fill="black"/>
<path d="M14.9309 20.1216L14.8112 20.6071L14.8115 20.6072L14.9309 20.1216ZM27.2092 9.6747V10.1747H27.7997L27.7024 9.59234L27.2092 9.6747ZM21.3692 9.6747L20.8937 9.82924L21.0059 10.1747H21.3692V9.6747ZM16.4559 15.0686L16.3341 15.5535L16.337 15.5542L16.4559 15.0686ZM6.43296 25.1296C6.84343 27.2031 8.02905 28.6661 9.67312 29.5969C11.3007 30.5185 13.361 30.9116 15.5487 30.9116V29.9116C13.4654 29.9116 11.5932 29.5349 10.1658 28.7268C8.75502 27.9279 7.76349 26.7013 7.41392 24.9354L6.43296 25.1296ZM15.5487 30.9116C17.8988 30.9116 19.8364 30.4224 21.2012 29.4666C22.5867 28.4963 23.3451 27.0684 23.3451 25.312H22.3451C22.3451 26.7429 21.7453 27.8648 20.6276 28.6475C19.4891 29.4447 17.7785 29.9116 15.5487 29.9116V30.9116ZM23.3451 25.312C23.3451 24.395 23.1462 23.6281 22.7337 22.9834C22.3233 22.3419 21.7274 21.8621 21.001 21.4741C19.5782 20.714 17.5191 20.243 15.0502 19.6361L14.8115 20.6072C17.3491 21.231 19.2472 21.6709 20.5298 22.3561C21.1562 22.6907 21.6001 23.0671 21.8914 23.5224C22.1806 23.9744 22.3451 24.5446 22.3451 25.312H23.3451ZM15.0505 19.6361C11.4145 18.7401 8.30744 18.0279 6.09014 16.7409C4.99619 16.106 4.1446 15.3439 3.56308 14.3713C2.98229 13.4 2.64987 12.1837 2.64987 10.6064H1.64987C1.64987 12.3291 2.01468 13.7303 2.70481 14.8845C3.39422 16.0375 4.38726 16.9088 5.58816 17.6058C7.96054 18.9827 11.244 19.728 14.8112 20.6071L15.0505 19.6361ZM2.64987 10.6064C2.64987 7.87375 3.80305 5.654 5.86002 4.10333C7.93074 2.54229 10.9498 1.6377 14.6906 1.6377V0.637695C10.8016 0.637695 7.55023 1.57682 5.25805 3.30481C2.95212 5.04316 1.64987 7.55775 1.64987 10.6064H2.64987ZM14.6906 1.6377C17.8124 1.6377 20.5883 2.25314 22.692 3.56757C24.7794 4.87179 26.2359 6.88173 26.7161 9.75706L27.7024 9.59234C27.1749 6.43391 25.552 4.17534 23.2219 2.7195C20.9082 1.27387 17.9287 0.637695 14.6906 0.637695V1.6377ZM27.2092 9.1747H21.3692V10.1747H27.2092V9.1747ZM21.8447 9.52016C21.3427 7.97553 20.3845 6.86617 19.0693 6.15327C17.7679 5.44789 16.1434 5.14402 14.3106 5.14402V6.14402C16.0451 6.14402 17.4877 6.43347 18.5927 7.03243C19.6839 7.62386 20.4713 8.52983 20.8937 9.82924L21.8447 9.52016ZM14.3106 5.14402C12.2233 5.14402 10.4888 5.5761 9.26111 6.42818C8.01255 7.29476 7.32323 8.57429 7.32323 10.1503H8.32323C8.32323 8.90442 8.84998 7.93079 9.83129 7.2497C10.8335 6.55411 12.3427 6.14402 14.3106 6.14402V5.14402ZM7.32323 10.1503C7.32323 10.9781 7.46309 11.6737 7.82926 12.2595C8.19614 12.8465 8.75343 13.2644 9.47472 13.6072C10.19 13.9471 11.1032 14.2299 12.2223 14.5268C13.3411 14.8238 14.7121 15.1463 16.3341 15.5535L16.5776 14.5836C14.9327 14.1707 13.5911 13.8555 12.4788 13.5603C11.3666 13.2652 10.53 13.0015 9.90393 12.704C9.2838 12.4093 8.90805 12.0988 8.67723 11.7295C8.44571 11.3591 8.32323 10.8708 8.32323 10.1503H7.32323ZM16.337 15.5542C19.2533 16.2678 22.2306 16.9346 24.4949 18.2655C25.6155 18.9241 26.5388 19.7341 27.1839 20.7738C27.8271 21.8105 28.2122 23.1053 28.2122 24.7652H29.2122C29.2122 22.9424 28.7867 21.4604 28.0336 20.2466C27.2824 19.0358 26.2238 18.1217 25.0017 17.4034C22.5807 15.9804 19.4299 15.2815 16.5747 14.5829L16.337 15.5542ZM28.2122 24.7652C28.2122 28.2451 26.607 30.6309 24.1982 32.1692C21.7648 33.7231 18.4944 34.418 15.2153 34.418V35.418C18.6123 35.418 22.0903 34.7018 24.7364 33.012C27.4069 31.3067 29.2122 28.6162 29.2122 24.7652H28.2122ZM15.2153 34.418C11.5316 34.418 8.28016 33.6431 5.86743 32.082C3.47063 30.5312 1.87577 28.1902 1.49656 24.9739L0.50344 25.091C0.918598 28.6122 2.6851 31.214 5.3242 32.9215C7.94737 34.6188 11.4063 35.418 15.2153 35.418V34.418Z" fill="black" mask="url(#path-1-inside-1_3340_2178)"/>
<path d="M6.92344 25.032C7.68348 28.8715 11.2778 30.4112 15.5487 30.4112C20.1286 30.4112 22.8451 28.4988 22.8451 25.3115C22.8451 21.9428 19.9373 21.3519 14.9309 20.1212C7.72761 18.3461 2.14987 17.206 2.14987 10.6059C2.14987 4.82466 7.06074 1.13723 14.6906 1.13723C21.0504 1.13723 26.2016 3.64046 27.2093 9.67423H21.3692C20.4449 6.83019 17.8779 5.64355 14.3106 5.64355C10.2554 5.64355 7.82323 7.3279 7.82323 10.1499C7.82323 13.2464 9.92193 13.4279 16.4559 15.0681C22.2273 16.4803 28.7122 17.7993 28.7122 24.7648C28.7122 32.0955 21.8914 34.9175 15.2153 34.9175C7.72271 34.9175 1.79437 31.7694 1 25.032H6.92344Z" fill="black" stroke="black" stroke-width="0.5" stroke-miterlimit="10"/>
<path d="M37.8471 17.8906C37.8471 21.712 38.8599 24.8474 40.708 27.0319C42.5602 29.2211 45.2315 30.4313 48.4926 30.4313C51.663 30.4313 54.2866 29.1957 56.1132 27.0023C57.936 24.8134 58.9492 21.6909 58.9492 17.9372C58.9492 14.1834 57.936 11.082 56.1002 8.91468C54.2607 6.74289 51.6137 5.53141 48.3994 5.53141C45.2073 5.53141 42.5603 6.75533 40.7151 8.92599C38.8734 11.0926 37.8471 14.182 37.8471 17.8906ZM64.4585 17.9838C64.4585 22.9815 62.8201 27.161 60.0036 30.0895C57.1878 33.0172 53.1778 34.7122 48.3994 34.7122C43.595 34.7122 39.5846 33.017 36.7749 30.0897C33.9643 27.1614 32.3379 22.982 32.3379 17.9838C32.3379 13.2768 33.8235 9.0946 36.5762 6.09194C39.3264 3.09211 43.3584 1.25049 48.4926 1.25049C53.2232 1.25049 57.21 2.9569 60.0147 5.89161C62.8202 8.8272 64.4585 13.0084 64.4585 17.9838Z" fill="black" stroke="black" stroke-width="0.5"/>
<path d="M38.0971 17.8904C38.0971 25.4491 42.1033 30.181 48.4926 30.181C54.6931 30.181 58.6992 25.3584 58.6992 17.9369C58.6992 10.5155 54.6931 5.78114 48.3994 5.78114C42.1523 5.78114 38.0971 10.5621 38.0971 17.8904ZM64.7085 17.9835C64.7085 28.0896 58.0789 34.9619 48.3994 34.9619C38.6684 34.9619 32.0879 28.0896 32.0879 17.9835C32.0879 8.46581 38.0971 1.00023 48.4926 1.00023C58.0789 1.00023 64.7085 7.92152 64.7085 17.9835Z" fill="black" stroke="black" stroke-width="0.5" stroke-miterlimit="10"/>
<mask id="path-6-inside-2_3340_2178" fill="white">
<path d="M76.0093 29.4091H83.0189C90.9846 29.4091 93.179 24.356 93.179 17.7093C93.179 11.0626 90.0775 6.60044 82.6389 6.60044H76.0093V29.4091ZM83.0189 1.77539C87.2163 1.77539 90.889 2.32213 94.1327 5.09997C97.3739 7.87535 99.1392 12.2468 99.1392 17.4347C99.1392 22.2622 98.0432 27.0873 94.3705 30.5933C91.5559 33.278 88.6947 34.19 83.3548 34.19H70.0957V1.77539"/>
</mask>
<path d="M76.0093 29.4091H83.0189C90.9846 29.4091 93.179 24.356 93.179 17.7093C93.179 11.0626 90.0775 6.60044 82.6389 6.60044H76.0093V29.4091ZM83.0189 1.77539C87.2163 1.77539 90.889 2.32213 94.1327 5.09997C97.3739 7.87535 99.1392 12.2468 99.1392 17.4347C99.1392 22.2622 98.0432 27.0873 94.3705 30.5933C91.5559 33.278 88.6947 34.19 83.3548 34.19H70.0957V1.77539" fill="black"/>
<path d="M76.0093 29.4091H75.5093V29.9091H76.0093V29.4091ZM76.0093 6.60044V6.10044H75.5093V6.60044H76.0093ZM94.1327 5.09997L93.8075 5.47974L93.8075 5.47976L94.1327 5.09997ZM94.3705 30.5933L94.7156 30.9551L94.7158 30.955L94.3705 30.5933ZM70.0957 34.19H69.5957V34.69H70.0957V34.19ZM76.0093 29.9091H83.0189V28.9091H76.0093V29.9091ZM83.0189 29.9091C87.1157 29.9091 89.8262 28.6026 91.4885 26.3485C93.1277 24.1257 93.679 21.0701 93.679 17.7093H92.679C92.679 20.9953 92.133 23.7896 90.6837 25.755C89.2574 27.689 86.8878 28.9091 83.0189 28.9091V29.9091ZM93.679 17.7093C93.679 14.3171 92.8884 11.4034 91.0745 9.33289C89.2502 7.25054 86.461 6.10044 82.6389 6.10044V7.10044C86.2554 7.10044 88.7362 8.18144 90.3223 9.99186C91.9188 11.8142 92.679 14.4548 92.679 17.7093H93.679ZM82.6389 6.10044H76.0093V7.10044H82.6389V6.10044ZM75.5093 6.60044V29.4091H76.5093V6.60044H75.5093ZM83.0189 2.27539C87.1758 2.27539 90.7002 2.81873 93.8075 5.47974L94.4579 4.7202C91.0778 1.82553 87.2568 1.27539 83.0189 1.27539V2.27539ZM93.8075 5.47976C96.9133 8.1392 98.6392 12.3573 98.6392 17.4347H99.6392C99.6392 12.1364 97.8345 7.61151 94.4579 4.72018L93.8075 5.47976ZM98.6392 17.4347C98.6392 22.1968 97.5574 26.8599 94.0253 30.2316L94.7158 30.955C98.5291 27.3147 99.6392 22.3277 99.6392 17.4347H98.6392ZM94.0254 30.2315C92.6638 31.5303 91.3081 32.3858 89.6551 32.9229C87.9918 33.4633 86.0008 33.69 83.3548 33.69V34.69C86.0487 34.69 88.1583 34.4607 89.9641 33.8739C91.7804 33.2838 93.2626 32.341 94.7156 30.9551L94.0254 30.2315ZM83.3548 33.69H70.0957V34.69H83.3548V33.69ZM70.5957 34.19V1.77539H69.5957V34.19H70.5957Z" fill="black" mask="url(#path-6-inside-2_3340_2178)"/>
<path d="M76.0093 29.409H83.0189C90.9846 29.409 93.179 24.356 93.179 17.7093C93.179 11.0626 90.0775 6.60036 82.6389 6.60036H76.0093V29.409ZM83.0189 1.77531C87.2163 1.77531 90.889 2.32205 94.1327 5.09989C97.3739 7.87527 99.1392 12.2467 99.1392 17.4347C99.1392 22.2622 98.0432 27.0872 94.3705 30.5932C91.5559 33.2779 88.6947 34.1899 83.3548 34.1899H70.0957V1.77531H83.0189Z" fill="black" stroke="black" stroke-width="0.5" stroke-miterlimit="10"/>
<mask id="path-9-inside-3_3340_2178" fill="white">
<path d="M116.877 7.64656L111.584 21.3053H121.933L116.877 7.64656ZM133.14 34.1892H126.748L123.507 25.586H110.057L106.72 34.1892H100.568L113.683 1.72803H120.025"/>
</mask>
<path d="M116.877 7.64656L111.584 21.3053H121.933L116.877 7.64656ZM133.14 34.1892H126.748L123.507 25.586H110.057L106.72 34.1892H100.568L113.683 1.72803H120.025" fill="black"/>
<path d="M116.877 7.64656L117.346 7.473L116.888 6.23515L116.411 7.46588L116.877 7.64656ZM111.584 21.3053L111.118 21.1246L110.854 21.8053H111.584V21.3053ZM121.933 21.3053V21.8053H122.651L122.402 21.1317L121.933 21.3053ZM126.748 34.1892L126.28 34.3655L126.402 34.6892H126.748V34.1892ZM123.507 25.586L123.975 25.4098L123.853 25.086H123.507V25.586ZM110.057 25.586V25.086H109.714L109.59 25.4052L110.057 25.586ZM106.72 34.1892V34.6892H107.062L107.186 34.37L106.72 34.1892ZM100.568 34.1892L100.105 34.0019L99.8271 34.6892H100.568V34.1892ZM113.683 1.72803V1.22803H113.346L113.219 1.54073L113.683 1.72803ZM116.411 7.46588L111.118 21.1246L112.05 21.486L117.344 7.82724L116.411 7.46588ZM111.584 21.8053H121.933V20.8053H111.584V21.8053ZM122.402 21.1317L117.346 7.473L116.409 7.82012L121.464 21.4788L122.402 21.1317ZM133.14 33.6892H126.748V34.6892H133.14V33.6892ZM127.216 34.013L123.975 25.4098L123.039 25.7623L126.28 34.3655L127.216 34.013ZM123.507 25.086H110.057V26.086H123.507V25.086ZM109.59 25.4052L106.254 34.0084L107.186 34.37L110.523 25.7668L109.59 25.4052ZM106.72 33.6892H100.568V34.6892H106.72V33.6892ZM101.032 34.3765L114.146 1.91532L113.219 1.54073L100.105 34.0019L101.032 34.3765ZM113.683 2.22803H120.025V1.22803H113.683V2.22803Z" fill="black" mask="url(#path-9-inside-3_3340_2178)"/>
<path d="M116.877 7.64726L111.584 21.306H121.933L116.877 7.64726ZM133.14 34.1899H126.748L123.507 25.5867H110.057L106.72 34.1899H100.568L113.683 1.72873H120.025L133.14 34.1899Z" fill="black" stroke="black" stroke-width="0.5" stroke-miterlimit="10"/>
<mask id="path-12-inside-4_3340_2178" fill="white">
<path d="M171.619 34.19H165.943V9.19685L156.501 34.19H151.637L141.955 9.19685V34.19H136.328V1.77539H144.674L154.165 27.1339L163.319 1.77539H171.619"/>
</mask>
<path d="M171.619 34.19H165.943V9.19685L156.501 34.19H151.637L141.955 9.19685V34.19H136.328V1.77539H144.674L154.165 27.1339L163.319 1.77539H171.619" fill="black"/>
<path d="M165.943 34.19H165.443V34.69H165.943V34.19ZM165.943 9.19685H166.443L165.475 9.02015L165.943 9.19685ZM156.501 34.19V34.69H156.847L156.969 34.3667L156.501 34.19ZM151.637 34.19L151.171 34.3706L151.294 34.69H151.637V34.19ZM141.955 9.19685L142.421 9.01623L141.455 9.19685H141.955ZM141.955 34.19V34.69H142.455V34.19H141.955ZM136.328 34.19H135.828V34.69H136.328V34.19ZM136.328 1.77539V1.27539H135.828V1.77539H136.328ZM144.674 1.77539L145.142 1.60013L145.021 1.27539H144.674V1.77539ZM154.165 27.1339L153.696 27.3091L154.173 28.5829L154.635 27.3037L154.165 27.1339ZM163.319 1.77539V1.27539H162.968L162.849 1.60561L163.319 1.77539ZM171.619 33.69H165.943V34.69H171.619V33.69ZM166.443 34.19V9.19685H165.443V34.19H166.443ZM165.475 9.02015L156.033 34.0133L156.969 34.3667L166.411 9.37355L165.475 9.02015ZM156.501 33.69H151.637V34.69H156.501V33.69ZM152.103 34.0094L142.421 9.01623L141.489 9.37746L151.171 34.3706L152.103 34.0094ZM141.455 9.19685V34.19H142.455V9.19685H141.455ZM141.955 33.69H136.328V34.69H141.955V33.69ZM136.828 34.19V1.77539H135.828V34.19H136.828ZM136.328 2.27539H144.674V1.27539H136.328V2.27539ZM144.206 1.95065L153.696 27.3091L154.633 26.9586L145.142 1.60013L144.206 1.95065ZM154.635 27.3037L163.79 1.94517L162.849 1.60561L153.694 26.9641L154.635 27.3037ZM163.319 2.27539H171.619V1.27539H163.319V2.27539Z" fill="black" mask="url(#path-12-inside-4_3340_2178)"/>
<path d="M171.619 34.1899H165.943V9.19677L156.501 34.1899H151.637L141.955 9.19677V34.1899H136.328V1.77531H144.674L154.165 27.1338L163.319 1.77531H171.619V34.1899Z" fill="black" stroke="black" stroke-width="0.5" stroke-miterlimit="10"/>
<path d="M182.712 17.8906C182.712 21.712 183.724 24.8474 185.572 27.0319C187.424 29.2212 190.096 30.4313 193.358 30.4313C196.527 30.4313 199.15 29.1956 200.976 27.0022C202.799 24.8134 203.812 21.6909 203.812 17.9372C203.812 14.1834 202.799 11.082 200.963 8.91468C199.123 6.74289 196.476 5.53141 193.262 5.53141C190.07 5.53141 187.424 6.75534 185.579 8.92602C183.738 11.0927 182.712 14.1821 182.712 17.8906ZM209.321 17.9838C209.321 22.9815 207.683 27.161 204.867 30.0895C202.052 33.0172 198.042 34.7122 193.262 34.7122C188.459 34.7122 184.449 33.017 181.64 30.0897C178.83 27.1614 177.203 22.982 177.203 17.9838C177.203 13.2768 178.689 9.0946 181.441 6.09194C184.192 3.09211 188.224 1.25049 193.358 1.25049C198.088 1.25049 202.075 2.95689 204.879 5.8916C207.684 8.82717 209.321 13.0083 209.321 17.9838Z" fill="black" stroke="black" stroke-width="0.5"/>
<path d="M182.962 17.8904C182.962 25.4491 186.966 30.181 193.358 30.181C199.556 30.181 203.562 25.3584 203.562 17.9369C203.562 10.5155 199.556 5.78114 193.262 5.78114C187.015 5.78114 182.962 10.5621 182.962 17.8904ZM209.571 17.9835C209.571 28.0896 202.944 34.9619 193.262 34.9619C183.534 34.9619 176.953 28.0896 176.953 17.9835C176.953 8.46581 182.962 1.00023 193.358 1.00023C202.944 1.00023 209.571 7.92152 209.571 17.9835Z" fill="black" stroke="black" stroke-width="0.5" stroke-miterlimit="10"/>
<mask id="path-17-inside-5_3340_2178" fill="white">
<path d="M220.875 29.4091H227.884C235.85 29.4091 238.044 24.356 238.044 17.7093C238.044 11.0626 234.943 6.60044 227.504 6.60044H220.875V29.4091ZM227.884 1.77539C232.082 1.77539 235.754 2.32213 238.998 5.09997C242.239 7.87535 244.004 12.2468 244.004 17.4347C244.004 22.2622 242.908 27.0873 239.236 30.5933C236.424 33.278 233.56 34.19 228.22 34.19H214.961V1.77539"/>
</mask>
<path d="M220.875 29.4091H227.884C235.85 29.4091 238.044 24.356 238.044 17.7093C238.044 11.0626 234.943 6.60044 227.504 6.60044H220.875V29.4091ZM227.884 1.77539C232.082 1.77539 235.754 2.32213 238.998 5.09997C242.239 7.87535 244.004 12.2468 244.004 17.4347C244.004 22.2622 242.908 27.0873 239.236 30.5933C236.424 33.278 233.56 34.19 228.22 34.19H214.961V1.77539" fill="black"/>
<path d="M220.875 29.4091H220.375V29.9091H220.875V29.4091ZM220.875 6.60044V6.10044H220.375V6.60044H220.875ZM238.998 5.09997L238.673 5.47974L238.673 5.47976L238.998 5.09997ZM239.236 30.5933L238.89 30.2316L238.89 30.2316L239.236 30.5933ZM214.961 34.19H214.461V34.69H214.961V34.19ZM220.875 29.9091H227.884V28.9091H220.875V29.9091ZM227.884 29.9091C231.981 29.9091 234.691 28.6026 236.354 26.3485C237.993 24.1257 238.544 21.0701 238.544 17.7093H237.544C237.544 20.9953 236.998 23.7896 235.549 25.755C234.123 27.689 231.753 28.9091 227.884 28.9091V29.9091ZM238.544 17.7093C238.544 14.3171 237.754 11.4034 235.94 9.33289C234.115 7.25054 231.326 6.10044 227.504 6.10044V7.10044C231.121 7.10044 233.601 8.18144 235.188 9.99186C236.784 11.8142 237.544 14.4548 237.544 17.7093H238.544ZM227.504 6.10044H220.875V7.10044H227.504V6.10044ZM220.375 6.60044V29.4091H221.375V6.60044H220.375ZM227.884 2.27539C232.041 2.27539 235.565 2.81873 238.673 5.47974L239.323 4.7202C235.943 1.82553 232.122 1.27539 227.884 1.27539V2.27539ZM238.673 5.47976C241.779 8.1392 243.504 12.3573 243.504 17.4347H244.504C244.504 12.1364 242.7 7.61151 239.323 4.72018L238.673 5.47976ZM243.504 17.4347C243.504 22.1968 242.423 26.8599 238.89 30.2316L239.581 30.955C243.394 27.3147 244.504 22.3277 244.504 17.4347H243.504ZM238.89 30.2316C237.53 31.5303 236.175 32.3858 234.521 32.9229C232.858 33.4633 230.866 33.69 228.22 33.69V34.69C230.914 34.69 233.024 34.4607 234.83 33.8739C236.647 33.2838 238.129 32.341 239.581 30.955L238.89 30.2316ZM228.22 33.69H214.961V34.69H228.22V33.69ZM215.461 34.19V1.77539H214.461V34.19H215.461Z" fill="black" mask="url(#path-17-inside-5_3340_2178)"/>
<path d="M220.875 29.409H227.884C235.85 29.409 238.044 24.356 238.044 17.7093C238.044 11.0626 234.943 6.60036 227.504 6.60036H220.875V29.409ZM227.884 1.77531C232.082 1.77531 235.754 2.32205 238.998 5.09989C242.239 7.87527 244.004 12.2467 244.004 17.4347C244.004 22.2622 242.908 27.0872 239.236 30.5932C236.424 33.2779 233.56 34.1899 228.22 34.1899H214.961V1.77531H227.884Z" fill="black" stroke="black" stroke-width="0.5" stroke-miterlimit="10"/>
<mask id="path-20-inside-6_3340_2178" fill="white">
<path d="M261.737 7.64656L256.443 21.3053H266.792L261.737 7.64656ZM277.999 34.1892H271.608L268.366 25.586H254.918L251.579 34.1892H245.428L258.542 1.72803H264.885"/>
</mask>
<path d="M261.737 7.64656L256.443 21.3053H266.792L261.737 7.64656ZM277.999 34.1892H271.608L268.366 25.586H254.918L251.579 34.1892H245.428L258.542 1.72803H264.885" fill="black"/>
<path d="M261.737 7.64656L262.206 7.473L261.748 6.23515L261.271 7.46588L261.737 7.64656ZM256.443 21.3053L255.977 21.1246L255.713 21.8053H256.443V21.3053ZM266.792 21.3053V21.8053H267.511L267.261 21.1317L266.792 21.3053ZM271.608 34.1892L271.14 34.3655L271.262 34.6892H271.608V34.1892ZM268.366 25.586L268.834 25.4098L268.712 25.086H268.366V25.586ZM254.918 25.586V25.086H254.576L254.452 25.4051L254.918 25.586ZM251.579 34.1892V34.6892H251.921L252.045 34.3702L251.579 34.1892ZM245.428 34.1892L244.964 34.0019L244.686 34.6892H245.428V34.1892ZM258.542 1.72803V1.22803H258.205L258.079 1.54073L258.542 1.72803ZM261.271 7.46588L255.977 21.1246L256.91 21.486L262.203 7.82724L261.271 7.46588ZM256.443 21.8053H266.792V20.8053H256.443V21.8053ZM267.261 21.1317L262.206 7.473L261.268 7.82012L266.323 21.4788L267.261 21.1317ZM277.999 33.6892H271.608V34.6892H277.999V33.6892ZM272.075 34.013L268.834 25.4098L267.898 25.7623L271.14 34.3655L272.075 34.013ZM268.366 25.086H254.918V26.086H268.366V25.086ZM254.452 25.4051L251.113 34.0083L252.045 34.3702L255.385 25.767L254.452 25.4051ZM251.579 33.6892H245.428V34.6892H251.579V33.6892ZM245.891 34.3765L259.006 1.91532L258.079 1.54073L244.964 34.0019L245.891 34.3765ZM258.542 2.22803H264.885V1.22803H258.542V2.22803Z" fill="black" mask="url(#path-20-inside-6_3340_2178)"/>
<path d="M261.737 7.64726L256.443 21.306H266.792L261.737 7.64726ZM277.999 34.1899H271.608L268.366 25.5867H254.918L251.579 34.1899H245.428L258.542 1.72873H264.885L277.999 34.1899Z" fill="black" stroke="black" stroke-width="0.5" stroke-miterlimit="10"/>
</svg>
