<svg width="277" height="35" viewBox="0 0 277 35" fill="none" xmlns="http://www.w3.org/2000/svg">
<path d="M5.92346 24.554C6.6835 28.4767 10.2778 30.0497 14.5488 30.0497C19.1286 30.0497 21.8452 28.0959 21.8452 24.8396C21.8452 21.3979 18.9374 20.7942 13.9309 19.5368C6.72763 17.7233 1.14988 16.5585 1.14988 9.8154C1.14988 3.90892 6.06075 0.141602 13.6906 0.141602C20.0505 0.141602 25.2017 2.69907 26.2093 8.86355H20.3692C19.4449 5.9579 16.8779 4.74555 13.3106 4.74555C9.2554 4.74555 6.82325 6.46639 6.82325 9.34949C6.82325 12.5131 8.92196 12.6985 15.4559 14.3743C21.2274 15.8171 27.7123 17.1647 27.7123 24.281C27.7123 31.7706 20.8915 34.6537 14.2153 34.6537C6.72273 34.6537 0.794371 31.4374 0 24.554" fill="#1A1A1A"/>
<path d="M37.0972 17.256C37.0972 24.9785 41.1033 29.8129 47.4926 29.8129C53.6931 29.8129 57.6993 24.8859 57.6993 17.3036C57.6993 9.72139 53.6931 4.88449 47.3995 4.88449C41.1524 4.88449 37.0972 9.76899 37.0972 17.256ZM63.7086 17.3512C63.7086 27.6763 57.079 34.6974 47.3995 34.6974C37.6684 34.6974 31.0879 27.6763 31.0879 17.3512C31.0879 7.62732 37.0972 0 47.4926 0C57.079 0 63.7086 7.07124 63.7086 17.3512Z" fill="#1A1A1A"/>
<path d="M75.0113 29.0246H82.0209C89.9867 29.0246 92.181 23.8621 92.181 17.0714C92.181 10.2807 89.0795 5.72182 81.6409 5.72182H75.0113V29.0246ZM82.0209 0.792236C86.2183 0.792236 89.891 1.35082 93.1347 4.18884C96.376 7.02435 98.1412 11.4905 98.1412 16.7908C98.1412 21.7229 97.0453 26.6525 93.3725 30.2345C90.5579 32.9773 87.6967 33.9091 82.3568 33.9091H69.0977V0.792236" fill="#1A1A1A"/>
<path d="M115.876 6.7904L110.582 20.745H120.931L115.876 6.7904ZM132.138 33.9081H125.746L122.505 25.1185H109.055L105.718 33.9081H99.5664L112.681 0.743652H119.024" fill="#1A1A1A"/>
<path d="M170.623 33.9091H164.947V8.37447L155.505 33.9091H150.641L140.959 8.37447V33.9091H135.332V0.792236H143.678L153.169 26.7001L162.323 0.792236H170.623" fill="#1A1A1A"/>
<path d="M181.962 17.256C181.962 24.9785 185.966 29.8129 192.358 29.8129C198.556 29.8129 202.562 24.8859 202.562 17.3036C202.562 9.72139 198.556 4.88449 192.262 4.88449C186.015 4.88449 181.962 9.76899 181.962 17.256ZM208.571 17.3512C208.571 27.6763 201.944 34.6974 192.262 34.6974C182.534 34.6974 175.953 27.6763 175.953 17.3512C175.953 7.62732 181.962 0 192.358 0C201.944 0 208.571 7.07124 208.571 17.3512Z" fill="#1A1A1A"/>
<path d="M219.875 29.0246H226.884C234.85 29.0246 237.044 23.8621 237.044 17.0714C237.044 10.2807 233.943 5.72182 226.504 5.72182H219.875V29.0246ZM226.884 0.792236C231.082 0.792236 234.754 1.35082 237.998 4.18884C241.239 7.02435 243.005 11.4905 243.005 16.7908C243.005 21.7229 241.909 26.6525 238.236 30.2345C235.424 32.9773 232.56 33.9091 227.22 33.9091H213.961V0.792236" fill="#1A1A1A"/>
<path d="M260.737 6.7904L255.443 20.745H265.792L260.737 6.7904ZM276.999 33.9081H270.608L267.366 25.1185H253.919L250.579 33.9081H244.428L257.542 0.743652H263.885" fill="#1A1A1A"/>
</svg>
