<svg width="245" height="38" viewBox="0 0 245 38" fill="none" xmlns="http://www.w3.org/2000/svg">
<path d="M0.105957 35.272L1.02396 33.22C3.11196 34.624 5.45196 35.326 8.04396 35.326C10.528 35.326 12.508 34.642 13.984 33.274C15.46 31.906 16.198 30.088 16.198 27.82C16.198 25.84 15.658 24.202 14.578 22.906C13.534 21.574 11.86 20.368 9.55596 19.288C3.83196 16.912 0.969957 13.564 0.969957 9.244C0.969957 6.58 1.90596 4.402 3.77796 2.71C5.64996 0.982002 8.02596 0.118002 10.906 0.118002C13.678 0.118002 15.838 0.658002 17.386 1.738L16.414 3.844C14.938 2.8 13.03 2.278 10.69 2.278C8.27796 2.278 6.45996 2.944 5.23596 4.276C4.04796 5.572 3.45396 7.066 3.45396 8.758C3.45396 10.738 3.99396 12.322 5.07396 13.51C6.15396 14.698 7.93596 15.868 10.42 17.02C13.264 18.424 15.352 19.936 16.684 21.556C18.016 23.14 18.682 25.156 18.682 27.604C18.682 30.448 17.71 32.806 15.766 34.678C13.858 36.55 11.23 37.486 7.88196 37.486C6.47796 37.486 5.03796 37.27 3.56196 36.838C2.08596 36.406 0.933957 35.884 0.105957 35.272ZM37.5149 37.54H37.4609C33.4649 37.54 30.1529 35.92 27.5249 32.68C24.8969 29.404 23.5829 24.868 23.5829 19.072C23.5829 13.096 24.9329 8.434 27.6329 5.086C30.3689 1.738 33.8249 0.064003 38.0009 0.064003C42.0689 0.064003 45.3809 1.702 47.9369 4.978C50.5289 8.218 51.8249 12.736 51.8249 18.532C51.8249 24.724 50.4389 29.44 47.6669 32.68C44.9309 35.92 41.5469 37.54 37.5149 37.54ZM37.6229 35.38H37.6769C40.1609 35.38 42.3029 34.552 44.1029 32.896C45.9029 31.24 47.1989 29.188 47.9909 26.74C48.8189 24.256 49.2329 21.556 49.2329 18.64C49.2329 16.696 48.9989 14.788 48.5309 12.916C48.0989 11.044 47.4329 9.298 46.5329 7.678C45.6689 6.022 44.4629 4.708 42.9149 3.736C41.4029 2.728 39.6749 2.224 37.7309 2.224C35.1389 2.224 32.9429 3.088 31.1429 4.816C29.3429 6.508 28.0649 8.578 27.3089 11.026C26.5529 13.474 26.1749 16.138 26.1749 19.018C26.1749 21.754 26.5709 24.328 27.3629 26.74C28.1909 29.152 29.4869 31.204 31.2509 32.896C33.0509 34.552 35.1749 35.38 37.6229 35.38ZM58.4496 36.946V1.09C60.8976 0.586003 63.5256 0.334003 66.3336 0.334003C71.9496 0.334003 76.1256 1.738 78.8616 4.546C81.9936 7.606 83.5596 12.034 83.5596 17.83C83.5596 23.914 82.0476 28.666 79.0236 32.086C75.9995 35.542 71.4096 37.27 65.2536 37.27C62.4456 37.27 60.1776 37.162 58.4496 36.946ZM60.9336 2.926V34.894C61.7616 35.038 63.3096 35.11 65.5776 35.11C70.5456 35.11 74.3436 33.688 76.9716 30.844C79.6356 27.964 80.9676 23.68 80.9676 17.992C81.0036 13.096 79.7976 9.28 77.3496 6.544C74.9016 3.808 71.1936 2.44 66.2256 2.44C64.2456 2.44 62.4816 2.602 60.9336 2.926ZM106.213 24.31H93.4146L89.4186 37H86.8806L98.6526 0.604003H101.083L112.855 37H110.263L106.213 24.31ZM94.1166 22.204H105.511L101.677 10.594C101.029 8.506 100.435 6.184 99.8946 3.628H99.7326C99.3726 5.32 98.7786 7.624 97.9506 10.54L94.1166 22.204ZM147.485 37L146.459 19.666C145.991 11.71 145.793 6.382 145.865 3.682H145.649C144.101 8.866 142.643 13.402 141.275 17.29L134.309 37H132.743L126.209 17.884C124.157 11.872 122.717 7.138 121.889 3.682H121.727C121.655 8.038 121.421 13.528 121.025 20.152L120.053 37H117.569L119.999 0.604003H122.861L129.881 20.908C131.789 26.704 133.031 30.7 133.607 32.896H133.769C134.417 30.124 135.659 26.146 137.495 20.962L144.623 0.604003H147.647L149.969 37H147.485ZM169.56 37.54H169.506C165.51 37.54 162.198 35.92 159.57 32.68C156.942 29.404 155.628 24.868 155.628 19.072C155.628 13.096 156.978 8.434 159.678 5.086C162.414 1.738 165.87 0.064003 170.046 0.064003C174.114 0.064003 177.426 1.702 179.982 4.978C182.574 8.218 183.87 12.736 183.87 18.532C183.87 24.724 182.484 29.44 179.712 32.68C176.976 35.92 173.592 37.54 169.56 37.54ZM169.668 35.38H169.722C172.206 35.38 174.348 34.552 176.148 32.896C177.948 31.24 179.244 29.188 180.036 26.74C180.864 24.256 181.278 21.556 181.278 18.64C181.278 16.696 181.044 14.788 180.576 12.916C180.144 11.044 179.478 9.298 178.578 7.678C177.714 6.022 176.508 4.708 174.96 3.736C173.448 2.728 171.72 2.224 169.776 2.224C167.184 2.224 164.988 3.088 163.188 4.816C161.388 6.508 160.11 8.578 159.354 11.026C158.598 13.474 158.22 16.138 158.22 19.018C158.22 21.754 158.616 24.328 159.408 26.74C160.236 29.152 161.532 31.204 163.296 32.896C165.096 34.552 167.22 35.38 169.668 35.38ZM190.494 36.946V1.09C192.942 0.586003 195.57 0.334003 198.378 0.334003C203.994 0.334003 208.17 1.738 210.906 4.546C214.038 7.606 215.604 12.034 215.604 17.83C215.604 23.914 214.092 28.666 211.068 32.086C208.044 35.542 203.454 37.27 197.298 37.27C194.49 37.27 192.222 37.162 190.494 36.946ZM192.978 2.926V34.894C193.806 35.038 195.354 35.11 197.622 35.11C202.59 35.11 206.388 33.688 209.016 30.844C211.68 27.964 213.012 23.68 213.012 17.992C213.048 13.096 211.842 9.28 209.394 6.544C206.946 3.808 203.238 2.44 198.27 2.44C196.29 2.44 194.526 2.602 192.978 2.926ZM238.257 24.31H225.459L221.463 37H218.925L230.697 0.604003H233.127L244.899 37H242.307L238.257 24.31ZM226.161 22.204H237.555L233.721 10.594C233.073 8.506 232.479 6.184 231.939 3.628H231.777C231.417 5.32 230.823 7.624 229.995 10.54L226.161 22.204Z" fill="black"/>
</svg>
