<svg width="212" height="28" viewBox="0 0 212 28" fill="none" xmlns="http://www.w3.org/2000/svg">
<mask id="path-1-inside-1_3862_2685" fill="white">
<path d="M5.49071 19.3838C6.06692 22.2946 8.79182 23.4619 12.0297 23.4619C15.5019 23.4619 17.5613 22.012 17.5613 19.5957C17.5613 17.0418 15.3569 16.5938 11.5613 15.6607C6.10037 14.315 1.87175 13.4507 1.87175 8.44699C1.87175 4.06409 5.5948 1.26855 11.3792 1.26855C16.2007 1.26855 20.106 3.16632 20.8699 7.74067H16.4424C15.7416 5.58454 13.7955 4.68491 11.0911 4.68491C8.01673 4.68491 6.17286 5.96186 6.17286 8.10127C6.17286 10.4489 7.76394 10.5864 12.7175 11.8299C17.0929 12.9005 22.0093 13.9005 22.0093 19.1812C22.0093 24.7388 16.8383 26.8782 11.777 26.8782C6.09666 26.8782 1.60223 24.4916 1 19.3838"/>
</mask>
<path d="M5.49071 19.3838C6.06692 22.2946 8.79182 23.4619 12.0297 23.4619C15.5019 23.4619 17.5613 22.012 17.5613 19.5957C17.5613 17.0418 15.3569 16.5938 11.5613 15.6607C6.10037 14.315 1.87175 13.4507 1.87175 8.44699C1.87175 4.06409 5.5948 1.26855 11.3792 1.26855C16.2007 1.26855 20.106 3.16632 20.8699 7.74067H16.4424C15.7416 5.58454 13.7955 4.68491 11.0911 4.68491C8.01673 4.68491 6.17286 5.96186 6.17286 8.10127C6.17286 10.4489 7.76394 10.5864 12.7175 11.8299C17.0929 12.9005 22.0093 13.9005 22.0093 19.1812C22.0093 24.7388 16.8383 26.8782 11.777 26.8782C6.09666 26.8782 1.60223 24.4916 1 19.3838" fill="black"/>
<path d="M11.5613 15.6607L11.4417 16.1462L11.442 16.1463L11.5613 15.6607ZM20.8699 7.74067V8.24067H21.4603L21.3631 7.65831L20.8699 7.74067ZM16.4424 7.74067L15.9669 7.89522L16.0791 8.24067H16.4424V7.74067ZM12.7175 11.8299L12.5957 12.3149L12.5986 12.3156L12.7175 11.8299ZM5.00023 19.4809C5.31878 21.0901 6.2411 22.2278 7.51573 22.9495C8.77384 23.6618 10.3586 23.9619 12.0297 23.9619V22.9619C10.463 22.9619 9.06631 22.6783 8.00844 22.0793C6.96708 21.4896 6.23884 20.5883 5.98119 19.2867L5.00023 19.4809ZM12.0297 23.9619C13.8259 23.9619 15.3223 23.5882 16.3844 22.8445C17.4672 22.0862 18.0613 20.9666 18.0613 19.5957H17.0613C17.0613 20.6411 16.6257 21.4546 15.8108 22.0254C14.9751 22.6106 13.7057 22.9619 12.0297 22.9619V23.9619ZM18.0613 19.5957C18.0613 18.8824 17.9063 18.2772 17.5788 17.7652C17.2532 17.2563 16.783 16.88 16.2203 16.5794C15.1246 15.9941 13.5441 15.6333 11.6807 15.1752L11.442 16.1463C13.3741 16.6213 14.7936 16.951 15.7491 17.4614C16.2119 17.7087 16.53 17.9815 16.7364 18.3041C16.9408 18.6235 17.0613 19.032 17.0613 19.5957H18.0613ZM11.681 15.1753C8.91613 14.4939 6.58191 13.9579 4.91967 12.9932C4.10326 12.5193 3.47475 11.9547 3.04693 11.2392C2.61984 10.525 2.37175 9.62522 2.37175 8.44699H1.37175C1.37175 9.77063 1.65223 10.8553 2.18866 11.7524C2.72437 12.6484 3.49433 13.3221 4.41769 13.8581C6.23501 14.9128 8.74558 15.4818 11.4417 16.1462L11.681 15.1753ZM2.37175 8.44699C2.37175 6.41354 3.22797 4.76635 4.75731 3.61345C6.30039 2.45017 8.5611 1.76855 11.3792 1.76855V0.768555C8.41288 0.768555 5.91988 1.4847 4.15533 2.81493C2.37705 4.15551 1.37175 6.09754 1.37175 8.44699H2.37175ZM11.3792 1.76855C13.7318 1.76855 15.8117 2.23263 17.3812 3.21327C18.9344 4.18369 20.0184 5.67741 20.3767 7.82304L21.3631 7.65831C20.9575 5.22959 19.7069 3.48725 17.9111 2.3652C16.1316 1.25337 13.8481 0.768555 11.3792 0.768555V1.76855ZM20.8699 7.24067H16.4424V8.24067H20.8699V7.24067ZM16.9179 7.58613C16.5277 6.38546 15.7806 5.51982 14.7564 4.96466C13.746 4.41703 12.4925 4.18491 11.0911 4.18491V5.18491C12.3941 5.18491 13.4659 5.40261 14.2799 5.84382C15.08 6.27751 15.6563 6.93976 15.9669 7.89522L16.9179 7.58613ZM11.0911 4.18491C9.4942 4.18491 8.152 4.51514 7.194 5.18005C6.21511 5.85946 5.67286 6.8665 5.67286 8.10127H6.67286C6.67286 7.19663 7.05255 6.49549 7.76418 6.00157C8.49671 5.49315 9.61361 5.18491 11.0911 5.18491V4.18491ZM5.67286 8.10127C5.67286 8.74181 5.781 9.29425 6.07488 9.76441C6.36948 10.2357 6.81393 10.5655 7.37299 10.8312C7.92607 11.094 8.62764 11.3107 9.47686 11.5361C10.3259 11.7614 11.3688 12.0069 12.5957 12.3148L12.8392 11.3449C11.5894 11.0312 10.5758 10.7931 9.73336 10.5696C8.89106 10.346 8.26608 10.1485 7.8022 9.92801C7.34429 9.71041 7.08139 9.48798 6.92285 9.23436C6.76362 8.97962 6.67286 8.63451 6.67286 8.10127H5.67286ZM12.5986 12.3156C14.8169 12.8583 17.0531 13.36 18.7508 14.3578C19.5881 14.85 20.2717 15.4514 20.7479 16.2189C21.2222 16.9835 21.5093 17.9425 21.5093 19.1812H22.5093C22.5093 17.7796 22.1818 16.6333 21.5976 15.6917C21.0153 14.7531 20.1963 14.0475 19.2576 13.4957C17.4032 12.4058 14.9935 11.8721 12.8363 11.3442L12.5986 12.3156ZM21.5093 19.1812C21.5093 21.7745 20.3166 23.5464 18.522 24.6924C16.703 25.854 14.2487 26.3782 11.777 26.3782V27.3782C14.3666 27.3782 17.0285 26.8327 19.0602 25.5352C21.1165 24.2221 22.5093 22.1456 22.5093 19.1812H21.5093ZM11.777 26.3782C8.99945 26.3782 6.55952 25.7937 4.75582 24.6266C2.96804 23.4699 1.7797 21.7267 1.49656 19.3253L0.50344 19.4423C0.822529 22.1487 2.18251 24.1527 4.21258 25.4662C6.22673 26.7694 8.87416 27.3782 11.777 27.3782V26.3782Z" fill="black" mask="url(#path-1-inside-1_3862_2685)"/>
<path d="M5.49071 19.3845C6.06692 22.2953 8.79182 23.4625 12.0297 23.4625C15.5019 23.4625 17.5613 22.0127 17.5613 19.5964C17.5613 17.0425 15.3569 16.5945 11.5613 15.6614C6.10037 14.3157 1.87175 13.4514 1.87175 8.44768C1.87175 4.06478 5.5948 1.26924 11.3792 1.26924C16.2007 1.26924 20.106 3.16701 20.8699 7.74136H16.4424C15.7416 5.58523 13.7955 4.6856 11.0911 4.6856C8.01673 4.6856 6.17286 5.96255 6.17286 8.10196C6.17286 10.4495 7.76394 10.5871 12.7175 11.8306C17.0929 12.9012 22.0093 13.9012 22.0093 19.1819C22.0093 24.7395 16.8383 26.8789 11.777 26.8789C6.09666 26.8789 1.60223 24.4923 1 19.3845H5.49071Z" fill="black" stroke="black" stroke-width="0.5" stroke-miterlimit="10"/>
<path d="M28.8741 13.9699C28.8741 16.8771 29.6446 19.2694 31.0573 20.9392C32.474 22.6137 34.5168 23.5377 37.0052 23.5377C39.4257 23.5377 41.4321 22.5937 42.829 20.9163C44.2221 19.2435 44.9931 16.8614 44.9931 14.0052C44.9931 11.149 44.2221 8.78261 42.8188 7.1259C41.4119 5.46478 39.3877 4.53957 36.9345 4.53957C34.4979 4.53957 32.4739 5.4744 31.0628 7.1344C29.6552 8.79037 28.8741 11.1475 28.8741 13.9699ZM49.0488 14.0405C49.0488 17.816 47.8113 20.9688 45.6884 23.1762C43.5661 25.3828 40.5423 26.6623 36.9345 26.6623C33.3069 26.6623 30.2829 25.3827 28.1653 23.1764C26.0469 20.9693 24.8184 17.8165 24.8184 14.0405C24.8184 10.4845 25.9406 7.32932 28.0156 5.06586C30.0881 2.80522 33.1282 1.41504 37.0052 1.41504C40.5765 1.41504 43.5827 2.70293 45.6966 4.9149C47.8114 7.12775 49.0488 10.282 49.0488 14.0405Z" fill="black" stroke="black" stroke-width="0.5"/>
<path d="M29.1241 13.9707C29.1241 19.7012 32.1613 23.2886 37.0052 23.2886C41.7059 23.2886 44.7431 19.6324 44.7431 14.006C44.7431 8.37963 41.7059 4.79041 36.9345 4.79041C32.1985 4.79041 29.1241 8.41494 29.1241 13.9707ZM49.2988 14.0413C49.2988 21.703 44.2728 26.9131 36.9345 26.9131C29.5572 26.9131 24.5684 21.703 24.5684 14.0413C24.5684 6.82572 29.1241 1.16587 37.0052 1.16587C44.2728 1.16587 49.2988 6.41308 49.2988 14.0413Z" fill="black" stroke="black" stroke-width="0.5" stroke-miterlimit="10"/>
<mask id="path-6-inside-2_3862_2685" fill="white">
<path d="M57.8671 22.7027H63.1812C69.2202 22.7027 70.8838 18.8719 70.8838 13.8329C70.8838 8.79382 68.5325 5.41092 62.8931 5.41092H57.8671V22.7027ZM63.1812 1.75293C66.3633 1.75293 69.1477 2.16743 71.6068 4.27338C74.0641 6.37746 75.4024 9.69159 75.4024 13.6247C75.4024 17.2845 74.5715 20.9425 71.7871 23.6005C69.6533 25.6358 67.4842 26.3273 63.4358 26.3273H53.3838V1.75293"/>
</mask>
<path d="M57.8671 22.7027H63.1812C69.2202 22.7027 70.8838 18.8719 70.8838 13.8329C70.8838 8.79382 68.5325 5.41092 62.8931 5.41092H57.8671V22.7027ZM63.1812 1.75293C66.3633 1.75293 69.1477 2.16743 71.6068 4.27338C74.0641 6.37746 75.4024 9.69159 75.4024 13.6247C75.4024 17.2845 74.5715 20.9425 71.7871 23.6005C69.6533 25.6358 67.4842 26.3273 63.4358 26.3273H53.3838V1.75293" fill="black"/>
<path d="M57.8671 22.7027H57.3671V23.2027H57.8671V22.7027ZM57.8671 5.41092V4.91092H57.3671V5.41092H57.8671ZM71.6068 4.27338L71.2816 4.65315L71.2816 4.65317L71.6068 4.27338ZM71.7871 23.6005L72.1322 23.9623L72.1324 23.9622L71.7871 23.6005ZM53.3838 26.3273H52.8838V26.8273H53.3838V26.3273ZM57.8671 23.2027H63.1812V22.2027H57.8671V23.2027ZM63.1812 23.2027C66.3147 23.2027 68.4107 22.2018 69.6995 20.4542C70.9652 18.7379 71.3838 16.3897 71.3838 13.8329H70.3838C70.3838 16.315 69.9706 18.4018 68.8947 19.8607C67.842 21.2882 66.0867 22.2027 63.1812 22.2027V23.2027ZM71.3838 13.8329C71.3838 11.2445 70.7808 9.00245 69.3793 7.40277C67.9674 5.7912 65.8156 4.91092 62.8931 4.91092V5.91092C65.61 5.91092 67.4535 6.7221 68.6271 8.06173C69.8112 9.41326 70.3838 11.3822 70.3838 13.8329H71.3838ZM62.8931 4.91092H57.8671V5.91092H62.8931V4.91092ZM57.3671 5.41092V22.7027H58.3671V5.41092H57.3671ZM63.1812 2.25293C66.3229 2.25293 68.9589 2.66403 71.2816 4.65315L71.9321 3.89361C69.3365 1.67083 66.4038 1.25293 63.1812 1.25293V2.25293ZM71.2816 4.65317C73.6035 6.64131 74.9024 9.80202 74.9024 13.6247H75.9024C75.9024 9.58116 74.5247 6.11362 71.932 3.89359L71.2816 4.65317ZM74.9024 13.6247C74.9024 17.2191 74.0856 20.7151 71.4419 23.2388L72.1324 23.9622C75.0574 21.1699 75.9024 17.3499 75.9024 13.6247H74.9024ZM71.442 23.2387C70.4208 24.2128 69.4083 24.8509 68.1749 25.2516C66.9311 25.6557 65.4361 25.8273 63.4358 25.8273V26.8273C65.4839 26.8273 67.0976 26.6531 68.4839 26.2027C69.8807 25.7489 71.0196 25.0235 72.1322 23.9623L71.442 23.2387ZM63.4358 25.8273H53.3838V26.8273H63.4358V25.8273ZM53.8838 26.3273V1.75293H52.8838V26.3273H53.8838Z" fill="black" mask="url(#path-6-inside-2_3862_2685)"/>
<path d="M57.8671 22.7026H63.1812C69.2202 22.7026 70.8838 18.8718 70.8838 13.8327C70.8838 8.79369 68.5325 5.41079 62.8931 5.41079H57.8671V22.7026ZM63.1812 1.7528C66.3633 1.7528 69.1477 2.1673 71.6068 4.27325C74.0641 6.37734 75.4024 9.69146 75.4024 13.6245C75.4024 17.2844 74.5715 20.9424 71.7871 23.6004C69.6533 25.6357 67.4842 26.3271 63.4358 26.3271H53.3838V1.7528H63.1812Z" fill="black" stroke="black" stroke-width="0.5" stroke-miterlimit="10"/>
<mask id="path-9-inside-3_3862_2685" fill="white">
<path d="M88.8497 6.20476L84.8367 16.5598H92.6824L88.8497 6.20476ZM101.179 26.3274H96.3329L93.8757 19.8051H83.6787L81.1489 26.3274H76.4854L86.4277 1.71777H91.2363"/>
</mask>
<path d="M88.8497 6.20476L84.8367 16.5598H92.6824L88.8497 6.20476ZM101.179 26.3274H96.3329L93.8757 19.8051H83.6787L81.1489 26.3274H76.4854L86.4277 1.71777H91.2363" fill="black"/>
<path d="M88.8497 6.20476L89.3186 6.0312L88.8604 4.79336L88.3834 6.02408L88.8497 6.20476ZM84.8367 16.5598L84.3704 16.3791L84.1066 17.0598H84.8367V16.5598ZM92.6824 16.5598V17.0598H93.4006L93.1513 16.3862L92.6824 16.5598ZM96.3329 26.3274L95.865 26.5037L95.987 26.8274H96.3329V26.3274ZM93.8757 19.8051L94.3436 19.6289L94.2216 19.3051H93.8757V19.8051ZM83.6787 19.8051V19.3051H83.3363L83.2125 19.6243L83.6787 19.8051ZM81.1489 26.3274V26.8274H81.4913L81.6151 26.5082L81.1489 26.3274ZM76.4854 26.3274L76.0218 26.1401L75.7441 26.8274H76.4854V26.3274ZM86.4277 1.71777V1.21777H86.0905L85.9641 1.53048L86.4277 1.71777ZM88.3834 6.02408L84.3704 16.3791L85.3029 16.7405L89.3159 6.38544L88.3834 6.02408ZM84.8367 17.0598H92.6824V16.0598H84.8367V17.0598ZM93.1513 16.3862L89.3186 6.0312L88.3808 6.37832L92.2135 16.7333L93.1513 16.3862ZM101.179 25.8274H96.3329V26.8274H101.179V25.8274ZM96.8008 26.1512L94.3436 19.6289L93.4078 19.9814L95.865 26.5037L96.8008 26.1512ZM93.8757 19.3051H83.6787V20.3051H93.8757V19.3051ZM83.2125 19.6243L80.6828 26.1466L81.6151 26.5082L84.1448 19.9859L83.2125 19.6243ZM81.1489 25.8274H76.4854V26.8274H81.1489V25.8274ZM76.9489 26.5147L86.8913 1.90507L85.9641 1.53048L76.0218 26.1401L76.9489 26.5147ZM86.4277 2.21777H91.2363V1.21777H86.4277V2.21777Z" fill="black" mask="url(#path-9-inside-3_3862_2685)"/>
<path d="M88.8497 6.20447L84.8367 16.5595H92.6824L88.8497 6.20447ZM101.179 26.3271H96.3329L93.8757 19.8048H83.6787L81.1489 26.3271H76.4854L86.4277 1.71748H91.2363L101.179 26.3271Z" fill="black" stroke="black" stroke-width="0.5" stroke-miterlimit="10"/>
<mask id="path-12-inside-4_3862_2685" fill="white">
<path d="M130.35 26.3273H126.047V7.37932L118.889 26.3273H115.202L107.862 7.37932V26.3273H103.596V1.75293H109.923L117.118 20.9778L124.059 1.75293H130.35"/>
</mask>
<path d="M130.35 26.3273H126.047V7.37932L118.889 26.3273H115.202L107.862 7.37932V26.3273H103.596V1.75293H109.923L117.118 20.9778L124.059 1.75293H130.35" fill="black"/>
<path d="M126.047 26.3273H125.547V26.8273H126.047V26.3273ZM126.047 7.37932H126.547L125.58 7.20263L126.047 7.37932ZM118.889 26.3273V26.8273H119.235L119.357 26.504L118.889 26.3273ZM115.202 26.3273L114.735 26.5079L114.859 26.8273H115.202V26.3273ZM107.862 7.37932L108.328 7.19871L107.362 7.37932H107.862ZM107.862 26.3273V26.8273H108.362V26.3273H107.862ZM103.596 26.3273H103.096V26.8273H103.596V26.3273ZM103.596 1.75293V1.25293H103.096V1.75293H103.596ZM109.923 1.75293L110.391 1.57767L110.27 1.25293H109.923V1.75293ZM117.118 20.9778L116.65 21.1531L117.126 22.4269L117.588 21.1476L117.118 20.9778ZM124.059 1.75293V1.25293H123.707L123.588 1.58315L124.059 1.75293ZM130.35 25.8273H126.047V26.8273H130.35V25.8273ZM126.547 26.3273V7.37932H125.547V26.3273H126.547ZM125.58 7.20263L118.422 26.1506L119.357 26.504L126.515 7.55602L125.58 7.20263ZM118.889 25.8273H115.202V26.8273H118.889V25.8273ZM115.668 26.1467L108.328 7.19871L107.395 7.55994L114.735 26.5079L115.668 26.1467ZM107.362 7.37932V26.3273H108.362V7.37932H107.362ZM107.862 25.8273H103.596V26.8273H107.862V25.8273ZM104.096 26.3273V1.75293H103.096V26.3273H104.096ZM103.596 2.25293H109.923V1.25293H103.596V2.25293ZM109.455 1.92819L116.65 21.1531L117.586 20.8026L110.391 1.57767L109.455 1.92819ZM117.588 21.1476L124.529 1.92271L123.588 1.58315L116.648 20.8081L117.588 21.1476ZM124.059 2.25293H130.35V1.25293H124.059V2.25293Z" fill="black" mask="url(#path-12-inside-4_3862_2685)"/>
<path d="M130.35 26.3271H126.047V7.37919L118.889 26.3271H115.202L107.862 7.37919V26.3271H103.596V1.7528H109.923L117.118 20.9777L124.059 1.7528H130.35V26.3271Z" fill="black" stroke="black" stroke-width="0.5" stroke-miterlimit="10"/>
<path d="M138.699 13.9699C138.699 16.8771 139.469 19.2693 140.882 20.9392C142.298 22.6137 144.341 23.5377 146.83 23.5377C149.25 23.5377 151.256 22.5937 152.653 20.9163C154.045 19.2435 154.816 16.8614 154.816 14.0052C154.816 11.149 154.045 8.78261 152.642 7.1259C151.235 5.46478 149.211 4.53957 146.758 4.53957C144.321 4.53957 142.298 5.47441 140.887 7.13443C139.48 8.79041 138.699 11.1476 138.699 13.9699ZM158.872 14.0405C158.872 17.816 157.635 20.9689 155.512 23.1762C153.39 25.3828 150.367 26.6623 146.758 26.6623C143.131 26.6623 140.108 25.3827 137.99 23.1764C135.872 20.9693 134.644 17.8165 134.644 14.0405C134.644 10.4845 135.766 7.32932 137.841 5.06586C139.913 2.80522 142.953 1.41504 146.83 1.41504C150.402 1.41504 153.407 2.70292 155.521 4.91488C157.635 7.12772 158.872 10.2819 158.872 14.0405Z" fill="black" stroke="black" stroke-width="0.5"/>
<path d="M138.949 13.9707C138.949 19.7012 141.985 23.2886 146.83 23.2886C151.529 23.2886 154.566 19.6324 154.566 14.006C154.566 8.37963 151.529 4.79041 146.758 4.79041C142.022 4.79041 138.949 8.41494 138.949 13.9707ZM159.122 14.0413C159.122 21.703 154.098 26.9131 146.758 26.9131C139.382 26.9131 134.394 21.703 134.394 14.0413C134.394 6.82572 138.949 1.16587 146.83 1.16587C154.098 1.16587 159.122 6.41308 159.122 14.0413Z" fill="black" stroke="black" stroke-width="0.5" stroke-miterlimit="10"/>
<mask id="path-17-inside-5_3862_2685" fill="white">
<path d="M167.693 22.7027H173.007C179.046 22.7027 180.71 18.8719 180.71 13.8329C180.71 8.79382 178.359 5.41092 172.719 5.41092H167.693V22.7027ZM173.007 1.75293C176.19 1.75293 178.974 2.16743 181.433 4.27338C183.89 6.37746 185.229 9.69159 185.229 13.6247C185.229 17.2845 184.398 20.9425 181.613 23.6005C179.481 25.6358 177.31 26.3273 173.262 26.3273H163.21V1.75293"/>
</mask>
<path d="M167.693 22.7027H173.007C179.046 22.7027 180.71 18.8719 180.71 13.8329C180.71 8.79382 178.359 5.41092 172.719 5.41092H167.693V22.7027ZM173.007 1.75293C176.19 1.75293 178.974 2.16743 181.433 4.27338C183.89 6.37746 185.229 9.69159 185.229 13.6247C185.229 17.2845 184.398 20.9425 181.613 23.6005C179.481 25.6358 177.31 26.3273 173.262 26.3273H163.21V1.75293" fill="black"/>
<path d="M167.693 22.7027H167.193V23.2027H167.693V22.7027ZM167.693 5.41092V4.91092H167.193V5.41092H167.693ZM181.433 4.27338L181.108 4.65315L181.108 4.65317L181.433 4.27338ZM181.613 23.6005L181.268 23.2388L181.268 23.2389L181.613 23.6005ZM163.21 26.3273H162.71V26.8273H163.21V26.3273ZM167.693 23.2027H173.007V22.2027H167.693V23.2027ZM173.007 23.2027C176.141 23.2027 178.237 22.2018 179.526 20.4542C180.791 18.7379 181.21 16.3897 181.21 13.8329H180.21C180.21 16.315 179.797 18.4018 178.721 19.8607C177.668 21.2882 175.913 22.2027 173.007 22.2027V23.2027ZM181.21 13.8329C181.21 11.2445 180.607 9.00245 179.205 7.40277C177.794 5.7912 175.642 4.91092 172.719 4.91092V5.91092C175.436 5.91092 177.28 6.7221 178.453 8.06173C179.637 9.41326 180.21 11.3822 180.21 13.8329H181.21ZM172.719 4.91092H167.693V5.91092H172.719V4.91092ZM167.193 5.41092V22.7027H168.193V5.41092H167.193ZM173.007 2.25293C176.149 2.25293 178.785 2.66403 181.108 4.65315L181.758 3.89361C179.163 1.67083 176.23 1.25293 173.007 1.25293V2.25293ZM181.108 4.65317C183.43 6.64131 184.729 9.80202 184.729 13.6247H185.729C185.729 9.58116 184.351 6.11362 181.758 3.89359L181.108 4.65317ZM184.729 13.6247C184.729 17.2191 183.912 20.7151 181.268 23.2388L181.959 23.9622C184.884 21.1699 185.729 17.3499 185.729 13.6247H184.729ZM181.268 23.2389C180.248 24.2128 179.235 24.8509 178.002 25.2516C176.758 25.6557 175.262 25.8273 173.262 25.8273V26.8273C175.31 26.8273 176.924 26.6531 178.311 26.2027C179.708 25.7489 180.847 25.0235 181.959 23.9622L181.268 23.2389ZM173.262 25.8273H163.21V26.8273H173.262V25.8273ZM163.71 26.3273V1.75293H162.71V26.3273H163.71Z" fill="black" mask="url(#path-17-inside-5_3862_2685)"/>
<path d="M167.693 22.7026H173.007C179.046 22.7026 180.71 18.8718 180.71 13.8327C180.71 8.79369 178.359 5.41079 172.719 5.41079H167.693V22.7026ZM173.007 1.7528C176.19 1.7528 178.974 2.1673 181.433 4.27325C183.89 6.37734 185.229 9.69146 185.229 13.6245C185.229 17.2844 184.398 20.9424 181.613 23.6004C179.481 25.6357 177.31 26.3271 173.262 26.3271H163.21V1.7528H173.007Z" fill="black" stroke="black" stroke-width="0.5" stroke-miterlimit="10"/>
<mask id="path-20-inside-6_3862_2685" fill="white">
<path d="M198.671 6.20476L194.658 16.5598H202.504L198.671 6.20476ZM211 26.3274H206.154L203.697 19.8051H193.502L190.97 26.3274H186.307L196.249 1.71777H201.058"/>
</mask>
<path d="M198.671 6.20476L194.658 16.5598H202.504L198.671 6.20476ZM211 26.3274H206.154L203.697 19.8051H193.502L190.97 26.3274H186.307L196.249 1.71777H201.058" fill="black"/>
<path d="M198.671 6.20476L199.14 6.0312L198.682 4.79336L198.205 6.02408L198.671 6.20476ZM194.658 16.5598L194.192 16.3791L193.928 17.0598H194.658V16.5598ZM202.504 16.5598V17.0598H203.222L202.973 16.3862L202.504 16.5598ZM206.154 26.3274L205.686 26.5037L205.808 26.8274H206.154V26.3274ZM203.697 19.8051L204.165 19.6289L204.043 19.3051H203.697V19.8051ZM193.502 19.8051V19.3051H193.16L193.036 19.6242L193.502 19.8051ZM190.97 26.3274V26.8274H191.312L191.436 26.5084L190.97 26.3274ZM186.307 26.3274L185.843 26.1401L185.565 26.8274H186.307V26.3274ZM196.249 1.71777V1.21777H195.912L195.785 1.53048L196.249 1.71777ZM198.205 6.02408L194.192 16.3791L195.124 16.7405L199.137 6.38544L198.205 6.02408ZM194.658 17.0598H202.504V16.0598H194.658V17.0598ZM202.973 16.3862L199.14 6.0312L198.202 6.37832L202.035 16.7333L202.973 16.3862ZM211 25.8274H206.154V26.8274H211V25.8274ZM206.622 26.1512L204.165 19.6289L203.229 19.9814L205.686 26.5037L206.622 26.1512ZM203.697 19.3051H193.502V20.3051H203.697V19.3051ZM193.036 19.6242L190.504 26.1465L191.436 26.5084L193.968 19.9861L193.036 19.6242ZM190.97 25.8274H186.307V26.8274H190.97V25.8274ZM186.77 26.5147L196.713 1.90507L195.785 1.53048L185.843 26.1401L186.77 26.5147ZM196.249 2.21777H201.058V1.21777H196.249V2.21777Z" fill="black" mask="url(#path-20-inside-6_3862_2685)"/>
<path d="M198.671 6.20447L194.658 16.5595H202.504L198.671 6.20447ZM211 26.3271H206.154L203.697 19.8048H193.502L190.97 26.3271H186.307L196.249 1.71748H201.058L211 26.3271Z" fill="black" stroke="black" stroke-width="0.5" stroke-miterlimit="10"/>
</svg>
